<?xml version="1.0" encoding="UTF-8" standalone="no"?>
<svg xmlns:dc="http://purl.org/dc/elements/1.1/" xmlns:cc="http://creativecommons.org/ns#" xmlns:rdf="http://www.w3.org/1999/02/22-rdf-syntax-ns#"
    xmlns="http://www.w3.org/2000/svg" xmlns:sodipodi="http://sodipodi.sourceforge.net/DTD/sodipodi-0.dtd"
    xmlns:inkscape="http://www.inkscape.org/namespaces/inkscape" version="1.1" width="200mm" height="200mm" id="svg4844"
    viewBox="0 0 3779 3779" sodipodi:docname="bird1.svg" inkscape:version="0.92.3 (2405546, 2018-03-11)">
  <metadata
     id="metadata4850">
    <rdf:RDF>
      <cc:Work
         rdf:about="">
        <dc:format>image/svg+xml</dc:format>
        <dc:type
           rdf:resource="http://purl.org/dc/dcmitype/StillImage" />
        <dc:title></dc:title>
      </cc:Work>
    </rdf:RDF>
  </metadata>
  <defs
     id="defs4848" />
  <sodipodi:namedview
     pagecolor="#ffffff"
     bordercolor="#666666"
     borderopacity="1"
     objecttolerance="10"
     gridtolerance="10"
     guidetolerance="10"
     inkscape:pageopacity="0"
     inkscape:pageshadow="2"
     inkscape:window-width="3840"
     inkscape:window-height="2126"
     id="namedview4846"
     showgrid="false"
     inkscape:zoom="1"
     inkscape:cx="283.46454"
     inkscape:cy="338.23711"
     inkscape:window-x="-11"
     inkscape:window-y="-11"
     inkscape:window-maximized="1"
     inkscape:current-layer="svg4844"
     units="mm" />
  <path
     d="m 1176.9578,2851.2525 c -25.4833,-85.4759 8.3856,-54.3578 -41.7528,7.8438 l -39.681,60.4475 c -22.7529,27.6139 -6.8384,32.3906 -64.3254,24.5145 l -96.05199,51.3757 c -2.48673,3.1703 -5.73104,8.1007 -8.11531,11.5117 -2.38784,3.4192 -5.30542,8.8736 -7.62967,12.4566 l -553.44729,449.2739 834.59696,-97.5156 c 235.3172,-71.4879 164.0528,25.9468 245.5607,-21.1257 l 7.0325,-14.2167 -63.6295,-25.0627 83.6556,-37.3554 -37.2368,-41.9964 c -40.6064,-40.5257 -0.6219,14.0831 -38.353,-41.8731 18.1715,-30.5171 5.2667,-48.3269 88.931,-81.8767 -7.4547,-92.0734 -18.4523,-61.1617 0.4562,-145.9416 l 53.9337,12.5172 c 32.4047,17.9554 33.6817,12.5779 42.6535,103.1824 9.982,100.8559 -26.218,152.7233 -45.0165,256.5997 l 154.8741,-46.0934 c 51.9557,-68.0606 205.7595,-109.6504 467.4148,-563.5007 111.8056,-193.9266 298.0459,-785.6685 288.629,-826.0201 l 4.8268,8.6671 -14.9501,30.7397 c -58.4478,-28.3928 -34.328,-15.3435 -77.1174,-23.4543 -43.6037,-8.2545 -23.3746,4.898 -50.1682,-34.2863 -29.9623,-43.8173 -8.9314,-36.2042 -55.8005,-60.4415 -153.2529,-79.2648 -123.8753,-108.3212 -187.1552,-207.3906 -24.9763,-39.1155 -42.3392,-30.679 -47.1535,-150.4432 l -41.569,-33.5478 -85.5525,99.8908 c 3.5994,6.29 9.0267,14.0204 10.1675,19.8471 0.9761,4.9405 -2.4124,25.609 -1.9074,22.1676 0.7671,-5.2784 -9.2808,16.4077 -13.9911,24.4821 -6.6441,70.0292 8.14,129.542 15.9144,156.5955 l 54.7144,94.2321 -42.7543,34.0131 c 24.4608,90.1251 -14.2276,37.6649 22.3132,112.5476 50.0976,102.6767 25.8929,148.8874 78.3042,379.7769 -13.7332,21.6294 -3.541,46.9693 -76.3862,1.922 5.8811,92.8623 35.4635,169.9078 -40.9367,94.6731 -34.2734,-33.7441 -28.3657,-71.1177 -47.7911,-131.8323 -22.8395,103.8603 7.0237,42.6803 -98.3445,169.8108 -84.4308,101.8654 -39.7587,83.5316 -93.7472,167.5569 l -69.8586,-124.9616 4.516,118.1213 c -105.347,-22.4407 -20.0048,21.0489 -71.125,-56.5995 l 8.8518,103.7834 c 0.1147,1.6994 0.3301,13.5328 0.4104,11.0059 0.076,-2.3631 0.7505,6.9515 0.2217,10.231 -50.8394,43.8274 -74.1132,-14.2166 -143.6452,-26.5295 l -6.2839,106.5166 c 26.2127,36.6351 17.9933,-19.8632 12.5412,62.9846 l -49.0819,221.0044 c -75.3002,-68.2063 5.0811,-37.758 -65.6325,-52.3813 -20.4463,-4.2203 -52.9517,11.3924 -73.368,18.2812 -31.7847,-95.0029 -29.2963,-112.0803 -30.9583,-214.1298 z m 206.4995,-35.757 c -18.3076,-4.4773 -30.5734,-2.4744 -37.5724,-6.3588 m 22.0536,-206.7594 c 55.6289,2.3873 45.9578,-96.148 57.3615,-174.8363 l 15.8191,43.1032 c 3.8749,9.3833 8.0111,19.2785 12.9226,26.2038 l 42.2526,-76.4891 c 1.302,-2.5613 4.2652,-8.1958 5.4026,-10.6802 l 13.9575,-44.226 c 0.325,-5.3451 1.1953,-8.2423 2.3932,-11.9001 24.0739,76.7622 17.6222,79.0564 36.4402,64.9328 0.6219,-0.2023 4.4064,0.5261 4.947,0.5463 l 10.3475,11.0808 c 13.0005,-104.2972 33.5721,-183.6248 72.3862,-224.6279 l 1.5824,-113.8647 c -10.3337,29.6148 -27.8412,80.6487 -39.7658,106.0189 l -51.3199,84.9438 -21.1103,87.8471 -17.5235,-64.5121 c -48.916,26.7076 -68.8307,72.0281 -94.3636,128.4981 l -36.8004,125.4452 c -0.2256,-2.448 -3.5199,0.4855 -4.396,-1.5983 l -10.5329,44.1167 -16.2113,77.1001 c -1.7925,206.201 -29.2576,162.412 31.7301,136.0181"
     style="fill:#ffffff;fill-rule:evenodd;stroke-width:23.13621712"
     id="path4810"
     inkscape:connector-curvature="0" />
  <path
     d="m 1980.3707,1428.2405 41.5654,33.5519 c 75.6074,-67.1847 -35.8663,-125.162 130.3481,-88.8687 119.2764,26.054 86.3189,-17.6237 160.1566,-82.0689 193.8363,-169.222 261.9625,95.2557 320.8272,58.4527 145.4836,-144.0622 197.2697,-116.4523 388.7518,-98.4989 128.9654,12.0984 289.046,79.5562 412.0383,33.1877 -101.8607,-101.1472 -323.1637,-116.2378 -455.5641,-144.9038 -239.0966,-51.7865 -233.1413,-7.8943 -400.2635,-224.88277 -101.2796,-131.50853 -274.8041,-235.04706 -416.3157,-87.87332 -104.1019,108.26461 -149.332,345.33889 -181.5441,601.90409 z"
     style="fill:#493c33;fill-rule:evenodd;stroke-width:23.13621712"
     id="path4812"
     inkscape:connector-curvature="0" />
  <path
     d="m 1815.5019,1595.7105 c -183.6141,188.8404 -200.1891,405.5861 -333.2376,596.3728 -71.7131,102.8345 -217.5994,203.0186 -389.9688,469.3779 -131.45535,203.134 -624.62711,624.0899 -844.48553,853.0352 l 118.14258,-45.8243 553.45087,-449.2698 c 2.32068,-3.583 5.24182,-9.0354 7.62609,-12.4566 2.38784,-3.411 5.62872,-8.3394 8.11532,-11.5117 l 96.05377,-51.3757 c 57.4888,7.8761 41.5708,3.0974 64.3254,-24.5145 l 39.6792,-60.4475 c 50.1384,-62.2037 16.2695,-93.3156 41.7546,-7.8498 l 20.1373,-26.7197 c 2.7515,-3.84 6.5575,-9.0354 9.5176,-13.2536 117.8403,-168.0668 66.8121,-182.0023 120.32,-228.3849 0.8793,-0.7688 5.2896,-3.6032 6.0295,-4.1697 0.7863,-0.6069 5.8794,0 6.464,-4.4489 0.6168,-4.6128 4.8639,-2.0029 6.7995,-4.5359 l 8.9349,-12.7559 c 28.249,-53.1379 44.7233,-86.8557 64.5055,-122.5683 25.5346,-56.4639 45.4475,-101.7844 94.3689,-128.492 l 38.6302,-23.3451 51.3214,-84.9357 c 11.9249,-25.3722 29.4324,-76.4061 39.7643,-106.0209 l -1.5842,113.8647 87.8059,-20.1809 c 41.675,-147.0746 56.5157,-73.7336 64.0799,-69.8026 l 122.9092,-236.0242 42.7525,-34.0132 -54.7162,-94.232 c -7.7726,-27.0576 -22.5585,-86.5644 -15.9144,-156.5996 l 5.7328,-66.4968 -20.1779,9.2195 z"
     style="fill:#493c33;fill-rule:evenodd;stroke-width:23.13621712"
     id="path4814"
     inkscape:connector-curvature="0" />
  <path
     d="m 2021.9361,1461.7924 c 4.8179,119.7601 22.1789,111.3236 47.157,150.4451 63.28,99.0674 33.9023,128.1198 187.1552,207.3806 46.8691,24.2413 25.8364,16.6282 55.8005,60.4415 26.7936,39.1863 6.5592,26.0318 50.1664,34.2903 42.7877,8.1087 18.6697,-4.9426 77.1157,23.4503 0,-39.0063 -6.1674,-30.7316 14.9518,-30.7316 l -4.825,-8.6753 c 27.2954,-201.4851 112.2384,-453.1401 183.8103,-549.0858 -58.8647,36.803 -126.9909,-227.6747 -320.8272,-58.4527 -73.8377,64.4452 -40.8802,108.1229 -160.1566,82.0689 -166.2144,-36.2933 -54.7407,21.684 -130.3481,88.8687 z"
     style="fill:#a54e24;fill-rule:evenodd;stroke-width:23.13621712"
     id="path4816"
     inkscape:connector-curvature="0" />
  <path
     d="m 1419.6661,2434.4157 c -19.7822,35.7065 -36.2565,69.4243 -64.5055,122.5622 l -8.9349,12.7559 8.9349,-12.7559 23.3108,1.2746 c 0.8742,2.0878 4.1699,-0.8498 4.396,1.5982 z m -51.7258,167.9616 -16.2113,77.1021 c -23.0567,158.8169 -17.4863,123.9864 31.7265,136.012 l 6.2856,-106.5126 c 69.5301,12.3109 92.8075,70.3549 143.6434,26.5255 0.5314,-3.2795 -0.1478,-12.592 -0.2166,-10.231 -0.089,2.5269 -0.2969,-9.3004 -0.4129,-10.9999 l -8.8483,-103.7894 c 51.1167,77.6484 -34.2238,34.1649 71.1251,56.6016 l -4.516,-118.1234 69.8568,124.9616 c 53.9884,-84.0253 9.3164,-65.6855 93.749,-167.559 105.3682,-127.1284 75.5049,-65.9484 98.3445,-169.8087 19.4219,60.7207 13.5141,98.0902 47.7875,131.8383 76.4002,75.2348 46.8178,-1.8208 40.9384,-94.6751 72.8471,45.0433 62.653,19.7034 76.3845,-1.922 -52.4077,-230.8814 -28.2031,-277.0921 -78.3025,-379.7687 -36.5407,-74.8827 2.1495,-22.4226 -22.3113,-112.5477 l -122.9092,236.0243 c -7.5695,-3.931 -22.4049,-77.272 -64.0799,69.8127 l -87.8023,20.1708 c -38.8159,41.0071 -59.3875,120.3286 -72.3862,224.6319 l -10.3493,-11.0869 c -0.5378,-0.02 -4.3271,-0.7081 -4.947,-0.526 -18.5265,8.4385 -9.5547,18.089 -36.4402,-64.9389 -1.1953,3.6639 -2.0699,6.555 -2.3949,11.9021 l -13.9575,44.2321 c -1.1342,2.4824 -4.0974,8.1148 -5.4027,10.6741 l -42.2525,76.487 c -4.908,-6.9252 -9.0442,-16.8204 -12.9191,-26.1977 l -15.8227,-43.1051 c -11.4019,78.6862 -1.7308,177.2235 -57.358,174.8342 z m 184.7249,-319.7947 -38.6354,23.3269 17.5233,64.5161 z"
     style="fill:#9fbc4e;fill-rule:evenodd;stroke-width:23.13621712"
     id="path4818"
     inkscape:connector-curvature="0" />
  <path
     d="m 1693.4122,3287.9182 -154.8759,46.0954 c 18.7985,-103.8784 55.0003,-155.7458 45.0164,-256.5976 -8.97,-90.6086 -10.2452,-85.2311 -42.6499,-103.1865 l -53.9337,-12.5193 c -18.9132,84.784 -7.912,53.8663 -0.4562,145.9437 -83.6643,33.5519 -70.7612,51.3616 -88.9328,81.8787 37.7314,55.9501 -2.2534,1.3555 38.3548,41.8711 l 37.235,42.0005 -83.6555,37.3472 63.6312,25.0668 26.5253,-9.009 c -13.1363,31.6096 -12.1208,6.1139 -33.5631,23.2297 18.5689,53.0914 18.6536,125.1417 96.451,80.1712 l -58.944,74.2839 c 53.2324,-3.1359 214.5422,-118.874 209.7967,-216.5758 z"
     style="fill:#493c33;fill-rule:evenodd;stroke-width:23.13621712"
     id="path4820"
     inkscape:connector-curvature="0" />
  <path
     d="m 1176.9578,2851.2566 c 1.66,102.0434 -0.8258,119.1208 30.9581,214.1257 20.4146,-6.8888 52.9236,-22.4974 73.3663,-18.2832 70.7135,14.6233 -9.6677,-15.823 65.6342,52.3813 l 49.0837,-221.0004 c 5.4487,-82.8498 13.6681,-26.3474 -12.5446,-62.9886 -60.9841,26.4 -33.5208,70.187 -31.7265,-136.012 l 16.2113,-77.1021 10.5311,-44.1167 -23.3108,-1.2746 -8.9349,12.7559 c -1.9356,2.5249 -6.1831,-0.2023 -6.7995,4.544 -0.5836,4.4044 -5.6781,3.8298 -6.464,4.4388 -0.7404,0.5665 -5.1499,3.411 -6.033,4.1717 -53.5044,46.3806 -2.4762,60.316 -120.3131,228.3909 -2.9635,4.2122 -6.7695,9.4076 -9.521,13.2476 z"
     style="fill:#a54e24;fill-rule:evenodd;stroke-width:23.13621712"
     id="path4822"
     inkscape:connector-curvature="0" />
  <path
     d="m 1439.9675,1402.2937 c -11.6634,-54.8961 -20.0435,-63.543 -18.7772,-127.2842 34.5629,-21.3523 31.926,-18.437 77.1315,12.2744 z m -73.1611,-158.2849 c 60.9185,-84.4137 17.9791,31.0796 83.5778,-107.162 l 8.0022,70.3873 -68.4864,69.7459 c -31.9437,-2.276 -11.4055,5.9885 -23.0936,-32.9712 z m -86.651,-178.5649 c 27.7758,-30.2844 39.6951,-12.0154 74.168,11.6979 l -1.0641,92.2332 c -0.4358,4.5885 -2.3719,14.2996 -2.8365,18.1375 -0.5033,4.1879 -2.181,13.1342 -3.6823,19.4545 -48.5663,-46.4332 -44.9564,26.5923 -8.9736,-116.4037 -62.4039,36.9669 -34.7748,50.0486 -57.6107,-25.1194 z m 76.4869,1223.5764 c 51.0142,-8.4507 101.7194,-62.8753 142.1158,-122.4691 24.012,-35.4111 81.953,-130.9866 104.7394,-191.2824 38.973,-103.1157 152.3628,-346.2877 219.0724,-386.9529 -27.3129,-96.5365 -81.6385,-167.4518 -144.6129,-232.1196 -27.7881,14.7669 -42.2508,22.2566 -68.3558,46.1783 l 43.6055,-90.4589 c -33.6252,-26.2928 -49.3772,-46.2714 -81.4763,-85.1522 6.0171,73.7902 -28.461,48.0315 29.9957,61.2265 -3.9666,7.0203 -9.3727,7.4836 -12.1968,20.5349 -15.2751,70.2922 9.1026,11.9871 -64.6822,51.5235 68.0289,57.8174 -16.1405,-6.9819 75.1111,3.6922 -3.926,7.4836 -9.7843,7.0689 -12.6331,21.065 -13.0709,64.2207 -27.4894,5.4099 -53.4478,74.3284 -4.9593,-4.1617 -12.7973,-17.0936 -15.5242,-9.9195 -0.1147,0.3034 -24.9464,11.6836 -53.7376,-82.6213 41.9559,-35.7287 32.5265,-6.0188 68.0907,-54.0139 -29.3438,-109.9984 45.8908,59.0779 -17.6187,-46.3321 l -21.4105,-27.8061 c 5.4537,-131.99 -5.332,-9.701 30.9581,-69.1289 -40.707,-33.6732 -86.0715,-90.8048 -130.3146,-136.4814 -41.5036,-71.8601 -56.4362,-88.10596 -116.8301,-146.60725 C 947.95808,566.99744 540.34748,163.86944 151.46658,278.6425 c 92.87658,308.79883 181.21412,257.72855 222.98269,353.30399 32.80379,75.0405 12.15621,96.48383 61.22758,168.22053 135.36387,197.90413 -1.4888,24.64394 128.9071,296.79958 l 138.64527,281.8646 c 52.35824,75.9955 102.22989,131.2456 182.01936,184.3835 48.28384,32.1619 178.92512,101.4992 210.84762,154.4692 80.1234,132.9429 125.4649,291.3775 184.5238,447.971 32.1432,85.221 38.5648,62.4444 76.0223,123.3654 z"
     style="fill:#f3f0e7;fill-rule:evenodd;stroke-width:23.13621712"
     id="path4824"
     inkscape:connector-curvature="0" />
  <path
     d="m 1439.9693,1402.2937 c -11.6652,-54.8981 -20.0453,-63.543 -18.779,-127.2822 34.5629,-21.3584 31.9244,-18.4349 77.1315,12.2704 z m -102.2049,-311.7304 c -62.4039,36.9669 -34.7731,50.0445 -57.6073,-25.1234 27.7759,-30.2845 39.6952,-12.0114 74.1681,11.7019 l -1.0666,92.2291 c -0.4346,4.5885 -2.3719,14.3057 -2.8383,18.1375 -0.4996,4.192 -2.1775,13.1363 -3.6786,19.4586 -48.5666,-46.4352 -44.9566,26.5923 -8.9773,-116.4037 z m 29.042,153.4496 c 60.9167,-84.4178 17.9773,31.0755 83.5795,-107.1681 l 8.0005,70.3893 -68.4864,69.7459 c -31.9454,-2.276 -11.4037,5.9885 -23.0936,-32.9671 z m -10.1623,1045.0094 c 51.0142,-8.4567 101.7176,-62.8713 142.114,-122.4711 2.9689,-4.3821 6.4622,-9.6828 10.3371,-15.73 27.4754,-42.7956 74.4346,-122.722 94.4041,-175.5585 28.4309,-75.2266 96.4775,-225.0001 157.103,-316.3006 19.3849,-29.194 38.0086,-52.3975 54.338,-65.2849 2.6033,-2.0535 5.1517,-3.85 7.6296,-5.3613 -27.3129,-96.5324 -81.6368,-167.4558 -144.6111,-232.1257 -2.6987,1.4365 -5.2719,2.8021 -7.7393,4.1171 -22.9699,12.2583 -37.0477,20.4641 -60.6165,42.0713 l 9.4257,-19.5618 34.178,-70.9031 c -33.627,-26.2908 -49.3772,-46.2673 -81.4763,-85.1522 0.2944,3.6336 0.4944,7.0183 0.6091,10.1886 2.2378,61.1637 -26.1914,38.4984 29.3882,51.0439 -3.9703,7.0183 -9.3728,7.4836 -12.2003,20.5329 -15.2751,70.2861 9.1061,11.9851 -64.6823,51.5215 68.0308,57.8114 -16.1404,-6.9819 75.1146,3.6963 -3.9295,7.4815 -9.7876,7.0607 -12.6365,21.067 -13.0709,64.2106 -27.4894,5.4038 -53.446,74.3223 -4.9611,-4.1576 -12.7973,-17.0977 -15.5243,-9.9236 -0.1146,0.3035 -24.9464,11.6837 -53.7393,-82.6151 41.9594,-35.7308 32.5265,-6.0209 68.0907,-54.012 -3.4933,-13.1019 -5.5066,-22.2445 -6.4426,-28.3604 -3.1279,-4.8313 -6.8226,-10.7571 -11.1744,-17.9757 l -17.2407,-22.3881 -4.1698,-5.42 c 0.5352,-12.9744 0.9137,-23.4989 1.1953,-31.9698 1.4976,-44.847 0.2804,-32.4836 5.2666,-24.2797 3.6541,6.0168 10.6478,9.796 24.4959,-12.8774 -40.7054,-33.6793 -86.0734,-90.8028 -130.3146,-136.4834 -3.4899,-6.0411 -6.7888,-11.6938 -9.9466,-17.0025 C 1349.9853,957.93598 1332.808,939.8086 1277.4881,886.22558 947.95757,567.00148 540.34875,163.86539 151.46429,278.63846 c 92.87658,308.80287 181.21756,257.73462 222.98626,353.30803 32.80035,75.04253 12.15442,96.48585 61.22579,168.21851 135.36566,197.9021 -1.49058,24.65001 128.90888,296.7995 l 138.64336,281.8667 c 52.35659,75.9995 102.2299,131.2516 182.01949,184.3794 48.28205,32.166 178.92683,101.5073 210.84583,154.4733 80.1269,132.9429 125.4631,291.3775 184.529,447.9731 32.1398,85.2189 38.5632,62.4423 76.0207,123.3653 z"
     style="fill:#ffffff;fill-rule:evenodd;stroke-width:23.13621712"
     id="path4826"
     inkscape:connector-curvature="0" />
  <path
     d="m 1439.9693,1402.2937 c -11.6652,-54.8981 -20.0453,-63.543 -18.779,-127.2822 34.5629,-21.3584 31.9244,-18.4349 77.1315,12.2704 z m -102.2049,-311.7304 c -62.4039,36.9669 -34.7731,50.0445 -57.6073,-25.1234 27.7759,-30.2845 39.6952,-12.0114 74.1681,11.7019 l -1.0666,92.2291 c -0.4346,4.5885 -2.3719,14.3057 -2.8383,18.1375 -0.4996,4.192 -2.1775,13.1363 -3.6786,19.4586 -48.5666,-46.4352 -44.9566,26.5923 -8.9773,-116.4037 z m 29.042,153.4496 c 60.9167,-84.4178 17.9773,31.0755 83.5795,-107.1681 l 8.0005,70.3893 -68.4864,69.7459 c -31.9454,-2.276 -11.4037,5.9885 -23.0936,-32.9671 z m -10.1623,1045.0094 c 51.0142,-8.4567 101.7176,-62.8713 142.114,-122.4711 l 10.3371,-15.73 c 0.013,0 0.064,-0.2023 0.089,-0.2023 27.479,-42.828 74.3728,-122.6532 94.3229,-175.4472 28.4308,-75.2266 96.4775,-224.9981 157.1029,-316.3006 19.385,-29.1839 38.0086,-52.3975 54.3381,-65.2849 2.6032,-2.0556 5.1464,-3.8481 7.6297,-5.3614 -27.3131,-96.5324 -81.637,-167.4537 -144.6113,-232.1236 -2.6986,1.4364 -5.2719,2.8 -7.7392,4.1151 -22.9701,12.2602 -37.0477,20.4641 -60.6165,42.0713 l 9.4257,-19.5618 34.1778,-70.9032 c -33.6268,-26.2887 -49.377,-46.2653 -81.4761,-85.1522 0.2944,3.6275 0.4945,7.0042 0.6092,10.1664 2.2483,61.1961 -26.2022,38.5166 29.388,51.0662 -3.9701,7.0203 -9.3727,7.4836 -12.2001,20.5349 -15.2753,70.2841 9.1059,11.9831 -64.6823,51.5214 68.0307,57.8094 -16.1406,-6.9839 75.1146,3.6943 -3.9296,7.4836 -9.7879,7.0628 -12.6366,21.067 -13.071,64.2127 -27.4895,5.4038 -53.4462,74.3223 -4.961,-4.1576 -12.7971,-17.0956 -15.524,-9.9215 -0.1147,0.3035 -24.9464,11.6837 -53.7394,-82.6152 41.9592,-35.7307 32.5265,-6.0229 68.0907,-54.0139 -2.7427,-10.2776 -4.5706,-18.1213 -5.6816,-23.9804 -0.3109,-1.5982 -0.5607,-3.067 -0.7607,-4.378 -3.1242,-4.8232 -6.8225,-10.7571 -11.1742,-17.9777 l -17.2408,-22.3881 -4.1698,-5.4201 1.1954,-31.9697 c 1.4975,-44.8471 0.2803,-32.4836 5.2664,-24.2798 3.6541,6.0169 10.6479,9.7961 24.496,-12.8773 -40.7052,-33.6793 -86.0733,-90.8008 -130.3146,-136.4834 l -9.9466,-17.0026 C 1349.9937,957.84494 1332.8164,939.71755 1277.4965,886.13454 947.96598,566.91044 540.35716,163.77637 151.4727,278.54741 c 92.87645,308.80287 181.21769,257.73665 222.98626,353.30804 32.80022,75.04455 12.1543,96.48787 61.22579,168.21851 135.36566,197.90413 -1.49058,24.65001 128.90888,296.79954 l 138.64349,281.8667 c 52.35646,75.9995 102.2299,131.2516 182.01936,184.3794 48.28193,32.168 178.92682,101.5073 210.84582,154.4753 80.1269,132.9409 125.463,291.3775 184.5289,447.973 32.1399,85.217 38.5633,62.4404 76.0208,123.3634 z"
     style="fill:#ffffff;fill-rule:evenodd;stroke-width:23.13621712"
     id="path4828"
     inkscape:connector-curvature="0" />
  <path
     d="m 1495.8669,1249.9467 22.2266,-68.2609 26.8325,33.1007 43.4889,35.1602 c 32.6854,54.6493 16.5326,33.6773 54.0644,61.9488 -14.2156,26.3353 -37.4858,60.0166 -45.0148,92.0187 175.0538,-190.8292 86.1847,252.8831 148.2688,30.9643 23.8921,57.6131 51.6925,94.2077 69.7686,160.832 l 59.1366,-58.3597 c -35.2287,-95.2315 -330.2988,-549.67862 -499.8034,-520.3956 18.5141,32.0972 -3.6965,-0.2428 21.0025,29.6371 52.4837,63.4681 99.7113,204.0666 100.0293,203.3544 z"
     style="fill:#886f67;fill-rule:evenodd;stroke-width:23.13621712"
     id="path4830"
     inkscape:connector-curvature="0" />
  <path
     d="m 1498.3218,1287.2819 c -45.2071,-30.7053 -42.5686,-33.6288 -77.1315,-12.2704 -1.2667,63.7392 7.1138,72.3841 18.779,127.2822 z"
     style="fill:#9fbc4e;fill-rule:evenodd;stroke-width:23.13621712"
     id="path4832"
     inkscape:connector-curvature="0" />
  <path
     d="m 1532.5897,1312.1524 c -5.3566,-20.2072 -10.3724,-39.0487 0,0 z m 0.102,0.4249 c -35.5642,47.991 -26.1313,18.2831 -68.0907,54.0139 28.7929,94.2988 53.6193,82.9146 53.7393,82.6152 2.727,-7.1741 10.5632,5.7639 15.5243,9.9215 25.9566,-68.9185 40.3751,-10.1097 53.446,-74.3223 2.8489,-14.0062 8.707,-13.5834 12.6366,-21.067 -91.2551,-10.6782 -7.0838,54.1151 -75.1147,-3.6943 73.7884,-39.5383 49.4072,18.7627 64.6823,-51.5214 2.8275,-13.0513 8.23,-13.5146 12.2003,-20.5349 -55.5955,-12.5516 -27.1345,10.1481 -29.3918,-51.1027 l -27.4099,-22.1049 -26.8343,-33.1027 -20.245,62.1753 17.2406,22.3882 c 15.7362,23.1205 8.7213,13.8767 17.617,46.3361 z"
     style="fill:#9fbc4e;fill-rule:evenodd;stroke-width:23.13621712"
     id="path4834"
     inkscape:connector-curvature="0" />
  <path
     d="m 1389.9,1276.98 68.4864,-69.7459 -7.7002,-67.7612 c -0.26,-0.5463 -0.5136,-1.0925 -0.7697,-1.6388 -64.9278,136.6878 -22.3377,21.9572 -83.1099,106.1707 11.69,38.9556 -8.8517,30.6911 23.0937,32.9671 z"
     style="fill:#9fbc4e;fill-rule:evenodd;stroke-width:23.13621712"
     id="path4836"
     inkscape:connector-curvature="0" />
  <path
     d="m 1353.2585,1169.3709 1.0666,-92.2291 c -34.4728,-23.7133 -46.3923,-41.9864 -74.168,-11.7019 22.8342,75.1679 -4.7968,62.0903 57.6072,25.1234 -35.9793,142.996 -39.5894,69.9685 8.9771,116.4037 z"
     style="fill:#9fbc4e;fill-rule:evenodd;stroke-width:23.13621712"
     id="path4838"
     inkscape:connector-curvature="0" />
  <path
     d="m 2297.0633,1091.1338 c 45.6999,71.063 80.805,88.5754 151.7905,51.8816 l 17.5358,-132.5424 c -33.0653,-21.77306 -30.2801,-31.95758 -59.1244,-50.06069 -16.2269,-10.17844 -23.4609,-9.45011 -33.3389,-14.66983 l -43.729,-29.54197 c -5.8493,86.84149 -15.4677,122.31739 -33.134,174.93329 z"
     style="fill:#133b50;fill-rule:evenodd;stroke-width:23.13621712"
     id="path4840"
     inkscape:connector-curvature="0" />
  <path
     d="m 2297.0633,1091.1338 c 17.6663,-52.6159 27.2847,-88.0918 33.134,-174.93329 -86.4672,147.03009 -33.7593,172.81109 -33.134,174.93329 z"
     style="fill:#ffffff;fill-rule:evenodd;stroke-width:23.13621712"
     id="path4842"
     inkscape:connector-curvature="0" />
</svg>
