<?xml version="1.0" encoding="UTF-8" standalone="no"?>
<!-- Creator: CorelDRAW Home & Student X8 -->

<svg
   xmlns:dc="http://purl.org/dc/elements/1.1/"
   xmlns:cc="http://creativecommons.org/ns#"
   xmlns:rdf="http://www.w3.org/1999/02/22-rdf-syntax-ns#"
   xmlns="http://www.w3.org/2000/svg"
   xmlns:sodipodi="http://sodipodi.sourceforge.net/DTD/sodipodi-0.dtd"
   xmlns:inkscape="http://www.inkscape.org/namespaces/inkscape"
   xml:space="preserve"
   width="200mm"
   height="200mm"
   version="1.1"
   style="shape-rendering:geometricPrecision; text-rendering:geometricPrecision; image-rendering:optimizeQuality; fill-rule:evenodd; clip-rule:evenodd"
   viewBox="0 0 20000 20000"
   id="svg1155"
   sodipodi:docname="hummingbird3.svg"
   inkscape:version="0.92.2 (5c3e80d, 2017-08-06)"><metadata
     id="metadata1159"><rdf:RDF><cc:Work
         rdf:about=""><dc:format>image/svg+xml</dc:format><dc:type
           rdf:resource="http://purl.org/dc/dcmitype/StillImage" /></cc:Work></rdf:RDF></metadata><sodipodi:namedview
     pagecolor="#ffffff"
     bordercolor="#666666"
     borderopacity="1"
     objecttolerance="10"
     gridtolerance="10"
     guidetolerance="10"
     inkscape:pageopacity="0"
     inkscape:pageshadow="2"
     inkscape:window-width="640"
     inkscape:window-height="480"
     id="namedview1157"
     showgrid="false"
     inkscape:zoom="2.4765"
     inkscape:cx="377.95276"
     inkscape:cy="377.95276"
     inkscape:current-layer="svg1155" /><defs
     id="defs817"><style
       type="text/css"
       id="style815"><![CDATA[
    .fil24 {fill:none}
    .fil3 {fill:#133B50}
    .fil16 {fill:#1B53A2}
    .fil1 {fill:#493C33}
    .fil11 {fill:#4F4A60}
    .fil23 {fill:#6F8CB8}
    .fil9 {fill:#702A49}
    .fil20 {fill:#77431E}
    .fil8 {fill:#827F3C}
    .fil21 {fill:#874298}
    .fil4 {fill:#886F67}
    .fil19 {fill:#979489}
    .fil14 {fill:#9FBC4E}
    .fil10 {fill:#A54E24}
    .fil13 {fill:#B37F4D}
    .fil6 {fill:#C2B59B}
    .fil17 {fill:#C7C6C5}
    .fil15 {fill:#C9B439}
    .fil18 {fill:#DA5C5B}
    .fil7 {fill:#E77424}
    .fil22 {fill:#E7E2D6}
    .fil12 {fill:#EA2A29}
    .fil5 {fill:#EC9353}
    .fil0 {fill:#F0F0F0}
    .fil25 {fill:#F3F0E7}
    .fil2 {fill:white}
   ]]></style></defs><rect
     class="fil0"
     width="20000"
     height="20000"
     id="rect819" /><path
     style="fill:#493c33"
     inkscape:connector-curvature="0"
     id="path822"
     d="m 8111,6990 c 28,-60 58,-48 -20,-125 -219,-218 -87,-215 -249,-284 149,-22 206,-6 284,72 56,187 -12,-139 -3,34 4,77 138,172 196,215 189,138 -16,34 268,256 -2,7 -8,16 -10,20 l -24,70 c 3,48 39,54 71,74 -170,-1 -196,-58 -270,-160 -97,-136 -71,-88 -243,-172 z"
     class="fil1" /><path
     style="fill:#493c33"
     inkscape:connector-curvature="0"
     id="path824"
     d="m 8902,10415 c 45,78 44,60 61,136 l 33,30 c 114,134 1,-36 65,110 183,236 153,470 507,574 4,-7 9,-28 11,-23 24,65 46,-65 44,-108 l 3,-1 c 1,4 0,4 -3,1 -59,-143 -80,-126 -118,-348 -62,-360 -138,-823 -153,-1187 53,50 -4,-28 43,54 l 101,343 c 59,212 388,1125 334,1234 l -54,47 h 102 c 95,-24 88,-137 77,-230 -23,-188 -271,-836 -330,-1150 -25,-136 -6,-246 -23,-387 -101,-815 -54,-1169 -524,-1924 -67,-108 -133,-173 -214,-256 -184,-191 -122,-706 -631,-846 -267,-74 -650,39 -772,188 92,32 72,2 136,101 13,21 65,127 77,157 l -290,-52 c 163,249 264,767 265,1096 l 49,96 c 8,3 18,8 32,15 113,57 112,22 149,-13 525,-180 201,-136 480,-222 -17,-271 -29,-223 -1,-401 -6,-29 1,-21 -2,-39 146,98 130,94 131,299 l 73,-52 c 121,-93 134,-117 183,-30 6,20 -2,95 -14,206 -12,40 -11,-22 -37,116 -58,300 -73,413 -61,726 -2,-27 -7,-77 -15,-134 9,-32 16,-49 15,147 42,164 -11,285 75,470 l -237,44 c -62,-86 -78,-60 -204,-97 -16,-5 -29,-9 -42,-12 z M 8111,6990 c 172,84 146,36 243,172 74,102 100,159 270,160 -32,-20 -68,-26 -71,-74 l 24,-70 c 2,-4 8,-13 10,-20 -284,-222 -79,-118 -268,-256 -58,-43 -192,-138 -196,-215 -6,-122 -199,-118 -281,-106 162,69 30,66 249,284 78,77 48,65 20,125 z"
     class="fil1" /><path
     style="fill:#ffffff"
     inkscape:connector-curvature="0"
     id="path826"
     d="m 15451,9501 c -136,162 -111,103 -235,215 l 108,-49 c 123,-54 230,-116 359,-167 132,-52 298,-72 398,-127 -204,54 -443,45 -630,128 z m 244,2708 22,-374 c 95,39 0,0 97,38 54,-26 90,-50 154,-86 293,-166 27,1 407,-88 107,-25 260,-49 362,-87 88,-32 59,-41 117,-52 64,-11 26,4 130,17 l 48,-22 c 6,-2 16,-7 24,-9 8,-2 17,-5 26,-7 129,-29 324,5 438,-198 42,-75 39,-140 68,-199 24,-47 24,-33 52,-68 123,-151 160,-586 142,-771 -84,-36 -24,11 -70,-53 l -12,147 c -15,-19 -67,-77 -81,-96 -68,-92 -136,-192 -138,-300 l -44,330 c -147,-124 -104,-148 -170,-323 -61,298 6,259 -114,300 l -20,200 c -124,-179 -64,-398 -65,-591 -2,5 -30,87 -45,122 -49,119 9,75 -89,122 -83,-83 -63,-112 -47,-236 -241,-148 -75,-85 -204,-161 -117,32 -217,209 -361,211 -33,-238 154,-206 85,-281 -74,70 -36,35 -126,77 -152,71 -232,179 -401,184 54,-171 443,-388 499,-493 -258,11 28,180 -563,216 -198,12 -376,158 -602,74 -8,-7 26,-85 -27,19 -63,122 -4,23 -7,65 -5,84 2,38 -100,140 15,96 23,87 40,153 58,236 -307,492 83,1028 41,56 43,48 76,102 l 237,352 c 176,231 109,9 137,459 2,28 0,39 8,69 18,72 -4,31 34,70 z"
     class="fil2" /><path
     style="fill:#133b50"
     inkscape:connector-curvature="0"
     id="path828"
     d="m 11881,11073 -1035,189 c -156,47 -198,59 -217,233 l 243,137 c -65,103 -122,79 -144,237 242,257 599,119 843,-80 l -22,58 c -4,3 -12,9 -17,13 -312,234 -493,284 -462,541 208,66 249,49 467,20 -28,161 -69,255 126,269 125,9 270,-53 357,-101 66,105 20,185 148,212 85,18 228,-43 287,-68 284,262 257,222 479,-20 58,122 303,255 473,170 118,-78 40,-182 71,-279 12,-3 19,10 21,19 3,13 22,27 27,32 131,140 393,151 513,120 l 25,-177 c 139,11 295,11 418,-50 31,-159 -32,-234 -78,-330 l 398,-29 c 6,-439 -1180,-873 -1436,-928 l -32,82 c -46,238 -52,3 -155,363 -82,287 -144,143 -88,374 62,260 176,525 236,774 -65,-151 -114,-261 -160,-427 l -122,-468 c -1,-12 -6,-15 -10,-23 -114,24 -64,71 -148,130 -101,72 21,11 -133,29 -3,0 -16,9 -18,3 -3,-6 -13,1 -19,4 37,107 5,616 -15,752 7,-102 28,-696 15,-752 l -101,105 c -34,41 -49,60 -88,92 -101,82 -121,51 -160,34 l -67,-39 c -4,164 -64,328 -128,448 101,-245 101,-443 247,-684 -321,136 -213,-323 -178,-551 -140,55 -436,325 -538,407 -5,4 -486,397 -495,394 l -24,-23 c 125,-86 221,-172 334,-261 126,-100 196,-157 313,-246 496,-376 368,-190 448,-717 z"
     class="fil3" /><path
     style="fill:#886f67"
     inkscape:connector-curvature="0"
     id="path830"
     d="m 3876,14660 c 398,-131 286,-97 444,-433 217,88 99,71 201,183 44,48 162,99 236,129 l -194,-14 c 22,24 111,86 85,146 -66,11 -55,-14 -101,-73 -34,41 -56,20 -17,154 -52,-42 -73,-56 -119,-104 l 1,195 c -8,-9 -54,-66 -70,-78 -6,-5 -24,-15 -30,-17 l -115,-23 c -135,-23 -187,106 -321,-65 z m 157,-2625 c 26,-9 -13,-104 100,173 36,88 67,147 63,244 -7,164 -226,687 -412,882 -171,178 -464,210 -706,243 -260,35 -314,-116 -511,-259 -85,-62 -162,-157 -183,-274 -33,-181 -2,-500 67,-660 38,-70 35,-76 51,-13 h 25 l 32,-179 c -201,263 -313,575 -271,1034 39,418 242,635 415,882 86,65 99,93 184,143 l -67,22 c 64,63 128,64 193,150 140,28 103,52 250,57 103,4 191,-10 293,9 l -34,92 c 155,235 310,237 314,229 37,-83 272,802 487,898 103,-75 118,-123 164,-254 35,32 16,11 52,56 97,121 114,256 256,307 94,-153 25,-426 12,-600 -14,-189 28,-106 32,-282 9,-380 20,-487 -24,-908 -7,-74 -42,-207 -37,-267 15,-184 63,110 31,-164 -24,-208 -109,-331 -145,-503 -90,-428 -67,-231 -168,-452 -87,-194 -78,-306 -228,-422 -208,-162 -177,-248 -285,-338 z"
     class="fil4" /><g
     id="g834"><path
       style="fill:#ec9353"
       inkscape:connector-curvature="0"
       id="path832"
       d="m 5069,5182 c 0,-167 15,-58 25,-79 121,-251 62,-152 169,-97 -4,-178 -28,-90 23,-233 47,96 102,187 125,320 -59,164 24,-56 -47,66 -58,99 -95,439 -216,569 -202,-226 -76,-196 -79,-546 z M 4461,3915 c 32,-92 -85,-27 209,-133 34,71 22,93 -9,169 -132,36 -127,63 -200,-36 z m -151,-834 c 171,-6 114,-65 240,-12 126,59 54,79 270,83 -64,102 -10,46 115,172 -270,306 -47,282 -335,366 -339,99 -277,105 -233,178 3,5 10,11 13,17 42,65 36,52 57,121 125,-1 163,8 262,123 74,87 61,140 163,220 145,112 353,-2 359,351 l -721,61 c -160,156 -160,13 -297,93 -231,134 -327,45 -446,58 -59,7 -43,23 -141,25 -41,-99 -39,-252 -144,-251 h -1 v 0 0 0 0 0 0 0 h -1 v 0 -1 0 0 h -1 v 0 0 0 h -1 v 0 1 0 h -1 v 0 0 0 h -1 v 0 0 0 h -1 v 0 0 h -1 v 0 0 1 h -1 v 0 0 h -1 v 0 h -1 v 0 0 1 h -1 v 0 0 h -1 v 0 h -1 v 0 1 0 h -1 v 0 h -1 v 0 0 l -1,1 v 0 0 0 h -1 v 0 l -1,1 v 0 0 h -1 v 0 0 h -1 v 1 0 h -1 v 0 0 0 l -1,1 v 0 0 h -1 v 0 h -1 v 0 1 0 h -1 v 0 0 0 h -1 v 1 0 0 h -1 v 0 0 0 l -1,1 v 0 0 0 0 h -1 v 0 0 0 0 0 l -1,1 v 0 0 0 0 0 0 0 0 0 0 0 0 0 0 z m -869,1616 v 0 l 1,-1 z m 0,0 z m 0,0 v 0 0 c -69,38 -29,36 -126,76 -17,-327 -82,-189 45,-491 -3,-9 -2,-6 -7,-17 -34,35 -34,57 -80,102 -25,25 -46,42 -70,79 -37,55 -24,32 -46,103 -118,383 -25,342 -20,692 5,3 14,-1 16,5 38,155 4,-64 60,47 20,41 22,105 31,154 88,19 63,-71 155,387 l 26,-1 c 77,-46 52,-26 108,-9 l 24,35 26,31 c 129,0 258,42 350,-1 l 21,-70 c 190,2 -21,-23 201,-26 l 57,150 c 125,-47 17,-10 127,37 126,52 -39,-33 65,21 48,25 25,10 67,63 l 145,-104 c 107,-49 60,19 154,-37 150,-90 280,-83 553,-74 16,-69 62,-162 90,-227 97,-224 56,46 99,-190 25,-139 83,-464 57,-584 -95,-434 -398,-611 -265,-922 23,-53 3,-10 37,-53 19,-26 18,-19 43,-47 -51,-140 -150,-537 -272,-613 l -112,-93 c -2,-2 -7,-8 -9,-10 -1,-1 -62,-27 -88,-37 -96,-39 -311,-263 -593,8 z m 60,-549 c 111,156 82,314 362,278 -57,8 -227,-46 -279,-102 14,-46 -87,-76 105,-64 l -137,-44 c 6,-94 -9,-67 47,-141 l -71,56 c -37,-43 -34,47 -29,-71 -59,90 -34,117 -146,205 l 15,34 c 12,5 37,-65 48,-80 51,-63 26,-36 85,-71 z"
       class="fil5" /></g><path
     style="fill:#c2b59b"
     inkscape:connector-curvature="0"
     id="path836"
     d="m 13334,11343 c -284,-57 -295,264 -829,-143 -234,-178 -79,-771 226,-675 57,-202 -103,-321 -96,-443 l 27,-37 32,-31 19,-19 -19,19 -32,31 -27,37 c -58,110 -114,243 -174,313 -112,-157 29,-59 -162,-373 -154,-254 34,-120 -246,-312 -429,-295 -197,-159 -392,-406 -30,-38 -92,-123 -95,-132 -93,-117 -270,-178 -401,-255 -159,-93 -267,-162 -419,-258 -232,-145 -637,-417 -941,-219 32,106 407,569 507,682 236,268 1280,1090 1642,1334 133,89 206,165 255,359 l 145,-142 -102,341 c -170,5 -250,-17 -371,59 l 399,-12 c -80,527 48,341 -448,717 -117,89 -187,146 -313,246 -113,89 -209,175 -334,261 l 24,23 c 9,3 490,-390 495,-394 102,-82 398,-352 538,-407 -35,228 -143,687 178,551 -146,241 -146,439 -247,684 64,-120 124,-284 128,-448 l 67,39 c 39,17 59,48 160,-34 39,-32 54,-51 88,-92 l 101,-105 c 13,56 -8,650 -15,752 20,-136 52,-645 15,-752 6,-3 16,-10 19,-4 2,6 15,-3 18,-3 154,-18 32,43 133,-29 84,-59 34,-106 148,-130 4,8 9,11 10,23 l 122,468 c 46,166 95,276 160,427 -60,-249 -174,-514 -236,-774 -56,-231 6,-87 88,-374 103,-360 109,-125 155,-363 z"
     class="fil6" /><path
     style="fill:#c2b59b"
     inkscape:connector-curvature="0"
     id="path838"
     d="m 10008,15003 c -268,-103 -10,-93 88,-559 l 54,119 c 13,43 20,100 30,147 49,213 162,693 151,870 -163,42 -194,55 -286,-56 71,-72 79,-51 189,-81 -7,1 -36,12 -80,-6 -58,-25 -47,-21 -84,-61 75,-169 36,-58 166,-145 -68,-2 -135,8 -190,-32 -197,-142 62,-242 88,-265 -8,-88 -13,-90 -78,-130 z M 8616,13019 c -118,92 -220,326 -257,471 -75,298 -82,763 81,1007 l 211,234 c 93,102 96,39 151,173 156,-51 -1,-53 153,-70 69,-7 98,28 171,49 112,-70 77,-124 209,-148 148,-28 126,31 174,120 54,-3 130,-16 169,-19 162,-11 72,-15 118,25 48,71 -4,210 -51,279 -60,86 -123,200 -208,234 0,52 16,50 -28,32 173,139 265,443 654,493 254,32 117,13 268,125 -2,-872 -269,-1092 -253,-1916 2,-99 -25,-256 -1,-322 l 33,-68 c 49,-206 -39,-244 68,-189 33,-107 -47,-217 -111,-314 l -212,-284 c 27,83 39,275 80,357 54,107 111,117 118,261 -171,-11 -105,-90 -242,-12 -85,48 -160,81 -283,71 -136,-12 -88,-42 -279,-40 -179,2 -103,-32 -223,-108 -63,29 -109,56 -206,56 l -89,-118 c -117,42 -62,34 -291,-83 -10,-146 39,-215 76,-296 z"
     class="fil6" /><path
     style="fill:#c2b59b"
     inkscape:connector-curvature="0"
     id="path840"
     d="m 7181,1794 c -94,-74 -73,-132 30,-186 101,78 98,141 -30,186 z m -819,378 c -18,35 36,88 -53,-4 l -41,19 c 26,27 150,-25 -55,347 -67,-15 -35,-2 -76,-26 l -53,-53 c -71,109 -177,327 -193,498 -16,162 26,107 -12,296 -24,120 -23,185 -23,342 45,33 17,20 81,44 l 55,62 62,31 c 3,-131 -91,-680 8,-875 39,-76 -12,-47 88,-71 56,88 13,312 11,455 -2,167 6,306 24,472 7,-2 16,-15 19,-9 7,19 20,-42 94,-20 22,60 16,82 -8,144 93,81 249,110 390,157 46,15 170,61 195,65 122,21 64,-19 215,-58 14,167 -26,160 180,167 64,-91 71,-184 112,-248 95,-147 119,11 148,-237 13,-115 43,-553 88,-623 -21,-133 -18,-401 -92,-506 -28,73 -18,45 -95,91 -154,93 -77,40 -260,-3 -52,-12 -90,-9 -159,-17 -106,-452 -115,-233 -252,-394 l 57,-53 c 195,-235 -38,-136 295,-206 163,-35 10,-31 219,-76 315,-68 -18,76 252,18 -54,-46 -5,13 -62,-56 l 207,-45 c -79,-106 -214,-212 -328,-284 -203,-126 -276,-120 -451,-14 -271,166 -390,538 -587,670 z"
     class="fil6" /><g
     id="g844"><path
       style="fill:#ffffff"
       inkscape:connector-curvature="0"
       id="path842"
       d="m 12894,16014 c -51,-100 17,-64 -83,9 l -79,70 c -46,32 -14,38 -129,29 l -192,60 c -5,3 -11,9 -16,13 -5,4 -10,10 -15,14 l -1106,523 1668,-113 c 470,-83 327,30 490,-25 l 14,-16 -127,-29 167,-44 -74,-49 c -81,-47 -2,17 -77,-49 36,-35 11,-56 178,-95 -15,-107 -37,-71 1,-170 l 107,15 c 65,21 68,15 86,120 20,117 -53,178 -90,299 l 309,-54 c 104,-79 411,-128 934,-656 223,-226 595,-914 576,-961 l 10,10 -30,36 c -117,-34 -69,-18 -154,-28 -87,-9 -47,6 -100,-40 -60,-51 -18,-42 -112,-70 -306,-92 -247,-126 -374,-241 -49,-46 -84,-36 -94,-176 l -83,-39 -171,117 c 7,7 18,16 21,23 2,6 -5,30 -4,26 1,-7 -19,19 -28,28 -13,82 16,151 32,182 l 109,110 -85,40 c 48,105 -29,43 44,131 100,119 52,173 157,442 -28,25 -8,54 -153,2 12,108 71,198 -82,110 -68,-39 -56,-83 -95,-153 -46,121 14,49 -197,197 -168,119 -79,98 -187,195 l -140,-145 9,137 c -210,-26 -39,25 -142,-66 l 18,121 c 0,2 1,16 1,13 0,-3 1,8 0,12 -101,51 -148,-17 -287,-31 l -12,124 c 52,43 36,-23 25,73 l -98,258 c -151,-80 10,-44 -131,-61 -41,-5 -106,13 -147,21 -63,-111 -58,-130 -62,-249 z m 413,-42 c -37,-5 -61,-3 -75,-7 z m -31,-248 c 111,3 92,-112 114,-203 l 32,50 c 8,11 16,22 26,30 l 84,-89 c 3,-3 9,-9 11,-12 l 28,-52 c 1,-6 2,-9 5,-14 48,90 35,92 73,76 1,0 8,1 9,1 l 21,13 c 26,-122 67,-214 145,-262 l 3,-132 c -21,34 -56,93 -80,123 l -102,99 -42,102 -35,-75 c -98,31 -138,84 -189,150 l -73,146 c -1,-3 -7,0 -9,-2 l -21,51 -33,90 c -3,240 -58,189 64,158 z"
       class="fil2" /></g><path
     style="fill:#e77424"
     inkscape:connector-curvature="0"
     id="path846"
     d="m 15547,6671 -202,66 -13,-102 c -9,-6 -32,-18 -37,-21 -6,-3 -21,-2 -25,-13 -4,-13 -18,-9 -27,-14 l -17,43 c -108,224 -554,832 -479,1115 58,31 154,37 198,12 0,65 0,117 44,177 132,-31 208,-98 295,-143 l 53,132 c 144,-10 111,-17 220,-85 127,-79 65,-28 176,-12 177,25 251,-134 376,-218 83,49 103,79 233,47 120,-30 28,-27 164,16 179,57 59,-47 204,34 385,218 99,72 437,158 134,34 67,55 201,31 171,-30 63,30 203,29 78,-1 209,-36 161,-119 -29,-323 -398,-854 -591,-1100 -55,-71 -105,-132 -157,-198 -91,-114 -266,-279 -284,-419 l -49,7 c 5,318 -44,512 -93,812 -46,282 -38,554 -165,721 -263,33 -337,-206 -441,-413 -81,-163 -208,-405 -255,-565 z"
     class="fil7" /><path
     style="fill:#ffffff"
     inkscape:connector-curvature="0"
     id="path848"
     d="m 11840,1994 c 20,65 92,121 99,123 l -296,61 c 107,102 140,25 230,167 308,485 205,1116 654,1497 64,55 158,135 218,196 l 211,252 c 13,79 21,54 54,137 l -121,-8 c 65,70 239,122 343,188 60,38 30,18 55,39 l 110,-74 c 14,16 45,54 65,74 61,60 28,4 83,91 48,70 12,101 102,150 39,34 138,174 193,236 89,64 171,156 306,204 -196,-541 -1279,-2096 -1281,-2357 -2,-209 228,-198 17,-352 l -41,-32 -26,-33 -27,-31 c -39,-28 -52,-29 -71,-43 -36,-28 -26,-25 -42,-45 -116,-142 8,-77 -116,-181 -67,-57 -44,-24 -74,-79 -180,0 -167,7 -331,-47 -155,-52 -128,-79 -200,-162 -81,55 43,36 -114,29 z"
     class="fil2" /><path
     style="fill:#827f3c"
     inkscape:connector-curvature="0"
     id="path850"
     d="m 7613,15209 c -45,-49 -43,-45 -82,-95 -182,-166 -120,-59 -214,-257 -184,-389 -91,-267 -7,-447 l -103,-9 2,18 c -16,176 5,61 -39,99 l 4,147 c -458,-82 -256,-160 -420,121 l -41,-110 c -101,78 -128,13 -233,39 -277,68 69,266 -474,171 l -96,313 c 63,109 36,17 75,100 50,110 -31,-11 26,81 51,82 24,-15 94,117 1,4 4,12 6,16 l 87,110 c 34,43 29,40 64,83 42,51 20,7 62,85 114,207 34,125 250,220 116,52 69,67 206,118 185,69 255,113 307,308 -20,14 16,36 -43,4 -1,75 -20,31 19,77 189,-14 368,-25 544,-70 170,-44 286,2 470,45 -7,-4 -18,-18 -21,-12 -3,6 -16,-9 -20,-12 l -571,-492 c -163,-129 -272,-231 -356,-416 -67,-148 -84,-123 -153,-227 l -171,-209 c -61,-72 -88,-146 -96,-270 91,315 128,228 239,361 l 346,509 c 4,5 11,11 15,15 4,5 10,11 14,15 l 188,155 c -29,-351 43,-249 -48,-413 -4,-5 -9,-13 -12,-18 l -45,-123 z"
     class="fil8" /><path
     style="fill:#702a49"
     inkscape:connector-curvature="0"
     id="path852"
     d="m 17782,10303 c -51,-290 -216,-520 -389,-719 -68,-79 -63,-155 -94,-277 l 106,-75 c -11,-102 -47,-131 -80,-198 -121,227 -34,187 -87,44 -3,-7 -7,-19 -13,-26 l -88,170 c -40,-168 8,7 98,-237 l -172,64 c -158,94 -91,114 -203,184 81,-115 99,-161 218,-226 81,-44 43,-55 211,-45 308,17 178,-53 704,-124 212,-29 162,-57 184,-97 -204,-51 -322,-7 -528,1 -64,35 -501,86 -548,60 l -129,79 c -4,6 -14,14 -18,19 -4,5 -13,13 -20,20 0,0 87,-146 -249,-2 -148,64 -127,41 -252,-6 -22,30 1,-10 -18,45 -8,30 0,2 -11,42 -162,-30 -832,62 -906,108 -54,34 14,12 -108,66 -91,40 -86,22 -155,98 270,-16 437,-125 710,-128 -108,60 -298,46 -436,85 -122,34 -316,97 -408,149 65,64 -89,83 363,-12 -5,5 -12,6 -14,16 -2,9 -12,13 -15,16 -3,3 -10,12 -14,15 -4,4 -11,11 -15,15 -26,27 -34,35 -60,56 5,4 12,5 15,11 l 90,7 c 187,-83 426,-74 630,-128 -100,55 -266,75 -398,127 -129,51 -236,113 -359,167 -20,14 -21,15 -52,39 l -58,46 c 226,84 404,-62 602,-74 591,-36 305,-205 563,-216 -56,105 -445,322 -499,493 169,-5 249,-113 401,-184 90,-42 52,-7 126,-77 69,75 -118,43 -85,281 144,-2 244,-179 361,-211 129,76 -37,13 204,161 -16,124 -36,153 47,236 98,-47 40,-3 89,-122 15,-35 43,-117 45,-122 1,193 -59,412 65,591 l 20,-200 c 120,-41 53,-2 114,-300 66,175 23,199 170,323 l 44,-330 c 2,108 70,208 138,300 14,19 66,77 81,96 l 12,-147 c 46,64 -14,17 70,53 z M 16728,9197 c 5,-6 12,-15 16,-19 3,-3 11,-13 15,-17 l 22,54 -651,102 c 58,-104 199,-141 303,-144 348,-13 129,-41 295,24 z"
     class="fil9" /><path
     style="fill:#ffffff"
     inkscape:connector-curvature="0"
     id="path854"
     d="m 6054,16175 c 57,-5 40,-13 23,46 40,315 176,247 336,360 -38,38 -4,28 -77,33 l 40,99 311,-85 v 1 1 2 0 c 0,14 3,-5 -1,27 l 105,-64 234,143 c -8,-218 -44,-162 -42,-301 56,-39 36,-24 61,4 59,32 23,10 43,-4 -52,-195 -122,-239 -307,-308 -137,-51 -90,-66 -206,-118 -216,-95 -136,-13 -250,-220 -42,-78 -20,-34 -62,-85 -35,-43 -30,-40 -64,-83 l -87,-110 c -2,-4 -5,-12 -6,-16 -70,-132 -43,-35 -94,-117 -57,-92 24,29 -26,-81 -39,-83 -12,9 -75,-100 l 96,-313 c 543,95 197,-103 474,-171 105,-26 132,39 233,-39 l 41,110 c 164,-281 -38,-203 420,-121 l -4,-147 c 44,-38 23,77 39,-99 l -2,-18 c -10,-30 -8,-28 -24,-59 l -31,-40 c -59,17 -37,20 -64,36 -135,82 -57,50 -160,30 -464,-89 -145,-162 -431,-217 -173,-34 -153,5 -180,-179 -142,3 -136,65 -197,-38 l -317,326 c -175,184 -70,89 -154,391 -50,179 -72,347 -6,543 l 121,286 c 20,45 33,87 61,146 67,141 210,380 229,549 z"
     class="fil2" /><path
     style="fill:#886f67"
     inkscape:connector-curvature="0"
     id="path856"
     d="m 3533,5824 24,35 26,31 c -88,59 -96,33 -86,185 l -78,-97 c -2,23 -6,99 -10,117 -14,60 -13,41 -45,73 l -58,-118 c -8,-12 -71,51 -32,-114 20,-86 -3,-11 53,-67 65,9 53,27 53,-30 l -53,30 -320,-22 c -79,115 -75,265 -31,417 l 795,40 42,181 c 158,177 204,697 531,832 l -68,-990 c 84,-6 170,-13 254,-18 l 243,35 c 84,-72 63,-40 210,-36 -9,187 -96,577 -157,790 l -27,31 27,-31 20,240 -198,-100 52,183 c 30,109 100,190 158,286 25,41 55,92 75,128 l 103,168 c 27,-304 74,-502 68,-818 -4,-246 -22,-644 11,-877 l 578,-16 c 75,-161 123,-271 70,-454 l -440,11 c -273,-9 -403,-16 -553,74 -94,56 -47,-12 -154,37 l -145,104 c -42,-53 -19,-38 -67,-63 -104,-54 61,31 -65,-21 -110,-47 -2,-84 -127,-37 -105,44 -45,-45 -92,103 l -104,-107 -67,147 -16,-197 c -92,43 -221,1 -350,1 l -26,-31 -24,-35 c -56,-17 -31,-37 -108,9 z"
     class="fil4" /><path
     style="fill:#702a49"
     inkscape:connector-curvature="0"
     id="path858"
     d="m 8616,13019 c -37,81 -86,150 -76,296 229,117 174,125 291,83 l 89,118 c 97,0 143,-27 206,-56 120,76 44,110 223,108 191,-2 143,28 279,40 123,10 198,-23 283,-71 137,-78 71,1 242,12 -7,-144 -64,-154 -118,-261 -41,-82 -53,-274 -80,-357 l -21,-76 c 349,-53 527,156 677,33 -173,-64 -396,-144 -598,-198 34,-164 -12,-234 -99,-341 -53,-65 -173,-200 -235,-236 -203,-117 -767,-65 -630,212 -134,9 -233,58 -231,197 4,203 98,33 180,147 -14,5 -101,-5 -221,118 -127,130 7,104 -161,232 z m 598,-530 c -312,130 166,348 72,64 -22,-64 -29,-37 -72,-64 z m -88,-37 c 198,37 171,87 299,213 41,25 36,19 61,36 -256,132 -368,-18 -443,-146 z"
     class="fil9" /><path
     style="fill:#493c33"
     inkscape:connector-curvature="0"
     id="path860"
     d="m 12815,2553 26,33 41,32 c 211,154 -19,143 -17,352 2,261 1085,1816 1281,2357 92,124 174,244 276,363 61,70 255,325 291,274 120,-163 -68,-651 -138,-751 -82,-119 -83,-33 -140,-213 -187,-582 -207,-701 -486,-1165 -281,-467 -563,-969 -1033,-1302 l -128,-11 z"
     class="fil1" /><path
     style="fill:#493c33"
     inkscape:connector-curvature="0"
     id="path862"
     d="m 2559,12192 -32,179 c 101,-54 111,-58 158,-142 l 1,-1 v -1 0 l 1,-1 v 0 -1 0 l 1,-1 v 0 -1 0 h 1 v 0 -1 0 l 1,-1 v 0 0 -1 0 h 1 v -1 0 0 0 l 1,-1 v 0 0 -1 0 0 -1 h 1 v 0 -1 0 0 0 h 1 v -1 0 0 0 0 -1 0 h 1 v 0 0 -1 0 0 0 0 -1 h 1 v 0 0 0 0 -1 0 0 0 0 0 l 1,-1 v 0 0 0 0 0 -1 0 0 0 0 -1 h 1 v 0 0 0 0 -1 0 0 0 -1 0 0 h 1 v 0 -1 0 0 0 0 -1 0 0 0 l 1,-1 v 0 0 0 -1 0 -1 0 0 0 l 1,-1 v 0 0 -1 0 0 -1 0 l 1,-1 v 0 0 0 -1 0 l 1,-1 c 16,-81 187,10 262,17 l 413,20 c 245,-9 130,-9 275,104 124,98 139,106 239,203 176,-86 35,-212 179,-181 l -38,-322 -50,-154 c 71,-902 -918,-992 -1339,-613 -155,-35 -265,-124 -373,-40 75,124 206,113 338,200 34,302 5,489 -50,764 z"
     class="fil1" /><path
     style="fill:#827f3c"
     inkscape:connector-curvature="0"
     id="path864"
     d="m 9333,1441 c 112,6 150,34 164,134 -129,93 -186,39 -164,-134 z m -1029,2536 12,-44 c 5,-37 5,-34 8,-78 3,-58 -6,-80 6,-144 24,-128 57,-116 148,-166 26,39 2,-24 15,48 6,32 2,36 9,77 8,52 22,92 45,143 69,152 96,142 108,337 l 571,-9 c -47,-55 48,-15 -32,-41 170,-28 94,10 99,-62 9,-128 -118,-35 -103,-265 6,-84 21,-92 16,-181 -19,-359 175,-227 428,-263 l 24,-121 -159,-45 c -81,-54 -76,-52 -110,-160 -105,5 -183,16 -273,-22 -103,-42 9,-5 -94,-51 -65,-29 -65,-10 -130,-47 -10,-353 -165,-515 -59,-703 l 217,-373 c 37,-53 71,-101 99,-134 l 71,97 c 118,-104 8,-92 133,-107 115,-14 90,20 224,-36 145,-60 307,-123 491,-130 l 37,291 c -7,-152 -30,-213 19,-327 l 26,-20 -26,20 c -169,14 -133,50 -323,30 59,-47 30,-17 90,-53 l 227,-147 c -195,-1 -63,-133 -431,-159 -587,-41 -552,160 -656,537 -79,286 -114,223 -225,394 l -318,890 c -144,357 -209,590 -184,1024 z"
     class="fil8" /><path
     style="fill:#133b50"
     inkscape:connector-curvature="0"
     id="path866"
     d="m 15593,4114 -257,4 c -20,202 6,233 26,424 20,188 -30,280 -50,450 9,279 88,482 347,460 151,-13 49,58 224,-19 132,-59 356,9 466,-306 69,-198 26,-48 123,-175 73,126 104,331 91,475 -12,131 14,41 -36,103 -36,45 -68,31 -98,99 -12,26 -19,143 -15,172 35,249 -13,94 78,156 71,-82 111,-16 171,-157 l 2,-127 c 20,-1008 -249,-740 -357,-1187 -71,-290 -12,-415 -224,-547 -184,-115 -435,-113 -625,0 6,5 14,11 18,14 l 77,45 c 64,42 25,8 67,59 l 273,-4 c -23,47 -87,64 4,145 -160,-40 -9,43 -144,-16 z"
     class="fil3" /><path
     style="fill:#493c33"
     inkscape:connector-curvature="0"
     id="path868"
     d="m 7613,10561 c -7,-237 -341,-842 -466,-966 -54,0 -40,13 -34,-43 l -17,-43 -53,-33 -20,-40 -20,-39 -24,-38 -24,-32 -24,-38 -26,-30 -30,-29 -29,-30 -30,-24 -137,9 c -12,35 -37,103 -43,116 -27,59 1,21 -39,64 -6,194 -148,246 -265,380 28,169 118,242 276,294 l -7,17 c -55,97 20,-11 -14,22 -1,1 -6,6 -7,7 l -48,23 c 58,83 44,139 136,240 -79,16 -31,-37 -113,32 84,41 141,136 168,223 l -95,-17 c 3,25 19,77 18,82 -13,81 50,-20 -27,26 -2,1 -11,5 -12,6 -2,1 -10,3 -14,6 l 135,381 c 65,71 161,229 173,327 42,39 84,102 134,159 240,272 389,376 471,473 131,155 432,503 514,726 l -169,-601 -11,-10 c -154,-245 -184,-229 -273,-381 -118,-202 -108,-527 -207,-479 -23,10 -16,7 -27,-2 -1,-2 -59,-145 -65,-160 -39,-93 -97,-305 -172,-349 l -53,-35 c -3,-2 -8,-8 -10,-10 -13,-11 -50,-57 -84,-42 -69,29 -11,15 -9,18 1,-159 20,-102 -20,-207 -47,-125 -131,-7 24,-58 -56,-290 -22,-158 24,-334 26,-101 -8,-160 42,-283 3,-9 8,-17 11,-25 l 28,-51 c 39,199 83,120 90,221 l 28,97 c 40,55 75,72 107,91 158,89 136,305 290,456 62,-33 32,28 49,-67 z"
     class="fil1" /><path
     style="fill:#493c33"
     inkscape:connector-curvature="0"
     id="path870"
     d="m 7708,15317 c -55,-65 -51,-52 -95,-108 l -227,147 45,123 c 3,5 8,13 12,18 91,164 19,62 48,413 l -188,-155 c -4,-4 -10,-10 -14,-15 -4,-4 -11,-10 -15,-15 l -346,-509 c -111,-133 -148,-46 -239,-361 8,124 35,198 96,270 l 171,209 c 69,104 86,79 153,227 84,185 193,287 356,416 l 571,492 c 4,3 17,18 20,12 3,-6 14,8 21,12 l 715,561 c -50,40 11,47 -119,4 l 862,408 c -45,-85 -103,-118 -180,-172 78,-46 124,-12 213,9 -30,-59 -38,-105 -57,-134 -59,-92 -142,-49 -52,-111 5,4 13,8 16,10 l -400,-286 -476,-467 c -171,-191 -320,-301 -464,-509 -48,-69 -382,-466 -427,-489 z"
     class="fil1" /><path
     style="fill:#a54e24"
     inkscape:connector-curvature="0"
     id="path872"
     d="m 6332,9745 c -53,-38 66,-44 -66,-30 l -179,262 c -193,263 -107,35 -178,188 -4,8 -12,40 -14,46 -1,6 -4,30 -5,26 -1,-5 -2,18 -6,29 l -148,-41 -28,144 c -124,-51 -209,-122 -219,-253 -28,-51 -4,-8 -30,-58 -119,6 -71,12 -57,108 l 273,591 238,270 c 99,164 -29,28 60,204 41,-29 115,-95 127,-68 6,13 21,9 29,12 88,39 96,35 146,102 l 58,-2 c -10,47 -22,38 22,38 l -22,-38 10,-39 c 109,63 111,74 229,7 36,-20 109,-75 156,-156 l -135,-381 c 4,-3 12,-5 14,-6 1,-1 10,-5 12,-6 77,-46 14,55 27,-26 1,-5 -15,-57 -18,-82 l 95,17 c -27,-87 -84,-182 -168,-223 82,-69 34,-16 113,-32 -92,-101 -78,-157 -136,-240 l 48,-23 c 1,-1 6,-6 7,-7 34,-33 -41,75 14,-22 l 7,-17 c -158,-52 -248,-125 -276,-294 z"
     class="fil10" /><path
     style="fill:#4f4a60"
     inkscape:connector-curvature="0"
     id="path874"
     d="m 2045,7452 c -32,128 -60,62 -136,210 -13,26 -18,42 -26,61 -150,332 -76,182 -261,355 -91,85 -85,131 -152,199 -36,46 -273,276 -161,391 85,88 306,-111 408,-145 l 128,-41 c 115,-26 156,-81 207,-146 -99,-2 -46,11 -101,-43 152,-38 138,-99 291,-130 95,-19 165,-26 311,-43 145,-17 59,-25 155,-41 68,-12 58,13 160,-3 34,-6 121,-45 145,-59 65,-37 45,-5 85,-82 -35,172 -285,98 -359,68 l -4,-45 c -2,-6 -5,-29 -8,-35 -28,-67 56,44 -27,-32 -87,-80 -15,42 -95,-87 10,-149 116,-187 219,-289 118,-118 14,-50 194,-82 61,-10 129,-29 180,-25 263,-17 475,41 746,12 -139,-166 -525,-110 -753,-177 l -172,-3 c -9,20 -38,64 -33,95 l 16,30 c 14,27 38,18 31,25 l -38,32 c -65,-132 -78,-72 -272,-77 -87,-2 -90,15 -152,-5 -106,-33 -84,-87 -84,-87 l -34,72 c -119,-62 -104,-46 -52,-99 2,-2 4,-5 7,-7 -9,-2 -19,-6 -25,-8 l -255,-52 c -4,-9 -15,-7 -22,-10 -5,137 36,53 -55,120 l 42,102 c -53,29 -26,1 -48,81 z"
     class="fil11" /><path
     style="fill:#c2b59b"
     inkscape:connector-curvature="0"
     id="path876"
     d="m 15522,6440 60,-107 c 62,12 39,-3 86,46 340,-187 157,-41 382,-167 76,-44 55,-26 123,-86 47,-43 -28,5 54,-32 51,22 52,17 86,41 33,-107 -18,-59 131,-149 l 48,-29 c -91,-62 -43,93 -78,-156 -4,-29 3,-146 15,-172 30,-68 62,-54 98,-99 50,-62 24,28 36,-103 13,-144 -18,-349 -91,-475 -97,127 -54,-23 -123,175 -110,315 -334,247 -466,306 -175,77 -73,6 -224,19 -259,22 -338,-181 -347,-460 -87,66 -121,168 -155,271 l -24,184 c 11,72 40,67 73,103 120,129 61,299 137,486 47,258 2,66 131,101 32,185 -97,154 -128,345 101,5 97,0 176,-42 z m 643,-201 5,-86 c -52,63 -60,18 -5,86 z"
     class="fil6" /><path
     style="fill:#702a49"
     inkscape:connector-curvature="0"
     id="path878"
     d="m 10118,1291 -227,147 c -60,36 -31,6 -90,53 190,20 154,-16 323,-30 l 26,-20 c 127,-30 242,-85 389,-93 167,-10 318,25 490,15 -45,-48 8,-15 -81,-66 -33,-19 -72,-31 -109,-40 -233,-62 -465,7 -721,34 z m -898,479 c -19,32 -92,131 -98,152 -46,166 9,131 80,166 -97,99 -52,143 -63,202 -27,140 -87,105 -68,328 113,70 2,0 87,25 7,2 16,3 23,6 8,2 16,4 23,7 l 42,18 c 82,39 45,74 179,41 119,-30 192,-167 233,-281 218,264 219,73 468,160 l -21,-806 -37,-291 c -184,7 -346,70 -491,130 -134,56 -109,22 -224,36 -125,15 -15,3 -133,107 z"
     class="fil9" /><path
     style="fill:#493c33"
     inkscape:connector-curvature="0"
     id="path880"
     d="m 5428,9764 c 189,-76 48,-120 273,-68 95,23 73,37 172,13 l 82,-32 c 292,-82 49,2 272,-147 121,-80 221,-73 290,-120 l -21,-100 c -108,-179 -132,-108 -332,-190 l -677,-443 c -224,-159 47,-159 -373,-202 l 31,-62 c -485,-10 -820,-100 -1314,0 310,138 909,14 1253,221 189,113 142,303 178,565 28,198 57,437 166,565 z"
     class="fil1" /><path
     style="fill:#827f3c"
     inkscape:connector-curvature="0"
     id="path882"
     d="m 8596,4343 c 125,-22 53,-64 106,49 l 78,465 -159,-7 c -22,-76 -32,-158 -43,-237 -14,-94 -35,-194 18,-270 z m 691,-85 c -352,73 -569,43 -935,-15 43,179 20,345 48,458 45,176 111,-123 -8,396 -73,318 -130,526 -157,869 178,-77 114,-176 267,-468 l -49,274 c 52,43 92,71 132,133 114,-170 176,-481 217,-723 4,-4 14,-11 16,-6 5,15 332,-128 496,-337 108,-138 302,-476 322,-621 l 90,4 c -5,-7 -15,-14 -21,-15 -4,-2 -17,-6 -22,-7 -64,-14 -65,-30 -47,18 l -87,-22 c 59,16 41,24 41,-40 l -41,40 c -97,-58 -48,-65 -118,-17 27,102 -28,10 54,51 l 94,31 c 6,2 17,3 24,7 l -172,255 c -13,-78 -5,-111 -41,-165 z"
     class="fil8" /><path
     style="fill:#c2b59b"
     inkscape:connector-curvature="0"
     id="path884"
     d="m 6640,5388 c 33,80 44,188 62,280 8,41 28,81 24,137 -12,173 7,54 -46,112 40,42 26,52 173,74 199,29 347,79 454,-65 107,-143 163,-511 75,-684 -16,245 8,615 -188,723 114,-121 130,-386 147,-590 -287,29 -105,-11 -278,61 -64,-100 15,-53 -52,-173 -21,157 -123,557 -203,671 -9,-148 108,-377 132,-546 -70,-22 -68,-24 -143,-34 -190,-26 -95,-42 -157,34 z m 17,-126 -43,76 z m 591,-876 c -106,-209 -181,-82 -315,-59 -102,-185 -76,-139 -300,-196 -162,-40 -197,-133 -382,-120 10,184 -10,84 92,182 102,97 50,86 78,216 17,78 29,203 64,287 47,109 73,126 97,261 94,96 55,134 252,92 120,-25 198,125 208,0 21,105 -10,85 -7,219 51,-80 178,-695 213,-882 z"
     class="fil6" /><path
     style="fill:#a54e24"
     inkscape:connector-curvature="0"
     id="path886"
     d="m 6290,13176 c 89,167 35,284 -46,436 -200,378 -221,280 -124,322 61,103 55,41 197,38 27,184 7,145 180,179 286,55 -33,128 431,217 103,20 25,52 160,-30 27,-16 5,-19 64,-36 l 31,40 c 16,31 14,29 24,59 l 103,9 88,-17 -7,-178 c -96,-150 39,26 36,-249 -52,-35 -51,-11 -93,-71 -35,-51 -10,-51 -52,-123 l -34,-79 c -198,-270 -78,26 -244,-169 -31,-36 -51,-67 -84,-96 -247,-208 -220,-152 -434,-255 -102,-15 -122,-27 -196,3 z"
     class="fil10" /><path
     style="fill:#ea2a29"
     inkscape:connector-curvature="0"
     id="path888"
     d="m 3501,4148 c 1,159 -5,225 98,315 243,211 243,132 412,236 74,45 51,76 179,32 114,-39 14,-72 158,-54 101,12 37,36 152,84 l 721,-61 c -6,-353 -214,-239 -359,-351 -102,-80 -89,-133 -163,-220 -99,-115 -137,-124 -262,-123 -246,-12 -133,-114 -420,-84 -158,16 -226,-25 -448,6 l -70,132 c -5,118 -8,28 29,71 l 71,-56 c -56,74 -41,47 -47,141 l 137,44 c -192,-12 -91,18 -105,64 52,56 222,110 279,102 -280,36 -251,-122 -362,-278 z"
     class="fil12" /><path
     style="fill:#a54e24"
     inkscape:connector-curvature="0"
     id="path890"
     d="m 7840,12161 11,10 c 64,36 162,188 227,275 76,100 153,207 216,301 -81,-422 -366,-804 -442,-989 -103,-253 -104,-1048 -239,-1197 -17,95 13,34 -49,67 -154,-151 -132,-367 -290,-456 -32,-19 -67,-36 -107,-91 l -28,-97 c -7,-101 -51,-22 -90,-221 l -28,51 c -3,8 -8,16 -11,25 -50,123 -16,182 -42,283 -46,176 -80,44 -24,334 -155,51 -71,-67 -24,58 40,105 21,48 20,207 -2,-3 -60,11 9,-18 34,-15 71,31 84,42 2,2 7,8 10,10 l 53,35 c 75,44 133,256 172,349 6,15 64,158 65,160 10,14 12,9 27,2 99,-48 89,277 207,479 89,152 119,136 273,381 z"
     class="fil10" /><path
     style="fill:#886f67"
     inkscape:connector-curvature="0"
     id="path892"
     d="m 9509,15406 c 44,18 28,20 28,-32 -56,-3 -51,-17 -28,32 -131,-15 -151,-29 -206,59 l -35,22 c -161,-11 -70,4 -102,24 126,14 67,16 102,-24 l 35,-22 c 92,70 128,178 227,273 86,83 174,150 284,220 127,83 209,81 282,216 78,146 111,166 197,271 208,11 275,4 267,-191 l 141,6 c 41,-881 -188,-570 -160,-1002 19,-313 -133,-334 -125,-1091 3,-302 -77,-396 -138,-638 -107,-55 -19,-17 -68,189 l -33,68 c -24,66 3,223 1,322 -16,824 251,1044 253,1916 -151,-112 -14,-93 -268,-125 -389,-50 -481,-354 -654,-493 z"
     class="fil4" /><path
     style="fill:#493c33"
     inkscape:connector-curvature="0"
     id="path894"
     d="m 14499,14357 83,39 c 151,-78 -71,-145 261,-103 238,30 172,-20 320,-96 387,-196 523,111 640,69 291,-168 394,-136 777,-115 257,14 577,92 823,39 -204,-118 -646,-136 -910,-169 -478,-60 -466,-9 -800,-262 -202,-153 -549,-273 -831,-102 -208,126 -298,402 -363,700 z"
     class="fil1" /><path
     style="fill:#a54e24"
     inkscape:connector-curvature="0"
     id="path896"
     d="m 5701,8599 c 43,-56 55,-55 125,-88 109,28 112,48 165,118 -74,115 -251,221 -290,-30 z m -556,-186 -31,62 c 420,43 149,43 373,202 l 677,443 c 200,82 224,11 332,190 66,22 58,15 101,55 40,-43 12,-5 39,-64 6,-13 31,-81 43,-116 l 137,-9 30,24 29,30 30,29 26,30 24,38 24,32 24,38 20,39 20,40 53,33 17,43 c -6,56 -20,43 34,43 l -34,-43 -17,-43 -53,-33 -20,-40 -20,-39 -24,-38 -24,-32 -24,-38 -26,-30 -30,-29 -29,-30 -30,-24 c -54,-68 -123,-129 -160,-233 -93,-264 173,205 -164,-420 -165,-305 -539,-429 -799,-352 -130,39 -421,180 -548,242 z"
     class="fil10" /><path
     style="fill:#133b50"
     inkscape:connector-curvature="0"
     id="path898"
     d="m 13202,9709 c -136,-33 -90,-35 -163,-145 -103,14 -55,-44 -92,87 -10,34 -6,124 -4,167 -35,29 -34,7 -82,32 103,26 173,-84 341,-141 z m -315,275 c 99,68 141,175 172,285 59,209 -14,13 -18,358 -393,114 -224,-26 -334,78 -4,5 -126,15 31,232 61,83 112,114 237,151 293,85 350,41 518,-94 176,-329 219,-593 212,-1039 l -130,46 c -108,-58 -30,-24 -115,-95 -153,-28 -184,-34 -311,-38 -46,-2 -138,-65 -208,10 -60,64 -24,1 -54,106 z"
     class="fil3" /><path
     style="fill:#493c33"
     inkscape:connector-curvature="0"
     id="path900"
     d="m 8802,14904 -704,27 c -124,31 -94,159 -46,253 94,184 762,-60 805,340 l 4,36 c 97,40 147,87 276,87 l 29,-136 c 32,-20 -59,-35 102,-24 l 35,-22 c 55,-88 75,-74 206,-59 -23,-49 -28,-35 28,-32 85,-34 148,-148 208,-234 47,-69 99,-208 51,-279 -46,-40 44,-36 -118,-25 -39,3 -115,16 -169,19 -48,-89 -26,-148 -174,-120 -132,24 -97,78 -209,148 -73,-21 -102,-56 -171,-49 -154,17 3,19 -153,70 z"
     class="fil1" /><path
     style="fill:#702a49"
     inkscape:connector-curvature="0"
     id="path902"
     d="m 3191,7243 c -29,-574 -333,-557 -590,-667 -169,-72 -619,166 -759,398 -3,5 -8,12 -11,18 l -47,133 c -25,115 -93,301 -197,384 1,2 16,73 25,83 141,-186 58,-19 323,-111 91,-32 54,-58 110,-29 22,-80 -5,-52 48,-81 l -42,-102 c 91,-67 50,17 55,-120 7,3 18,1 22,10 l 255,52 c 6,2 16,6 25,8 -57,61 -79,42 45,106 l 34,-72 c 0,0 -22,54 84,87 62,20 65,3 152,5 194,5 207,-55 272,77 l 38,-32 c 7,-7 -17,2 -31,-25 l -16,-30 c -5,-31 24,-75 33,-95 z"
     class="fil9" /><path
     style="fill:#886f67"
     inkscape:connector-curvature="0"
     id="path904"
     d="m 11368,5476 -35,17 c -40,43 -407,130 -478,146 -237,54 -319,51 -562,83 -4,248 50,428 114,652 l 285,483 c 115,169 122,70 374,333 86,90 109,111 221,132 107,20 221,36 258,158 23,-30 49,-29 51,-76 l 155,16 8,-128 c -94,-53 -149,-122 -274,-170 -211,-82 -130,-75 -267,-202 -158,-146 -330,-326 -539,-401 55,-117 93,-186 129,-320 l 27,42 c 52,115 69,147 70,131 l -10,-15 -28,-62 c -36,-210 -90,-391 115,-455 158,-259 222,-42 303,-266 l 31,42 c 1,-5 10,10 14,16 21,-110 34,-185 141,-166 l -16,-10 -61,-44 z"
     class="fil4" /><path
     style="fill:#b37f4d"
     inkscape:connector-curvature="0"
     id="path906"
     d="m 1543,10088 34,-21 29,-31 23,-36 20,-22 -20,22 -23,36 -29,31 -34,21 -219,63 c 45,314 119,377 415,314 197,-42 549,-131 733,-129 157,-98 641,-154 861,-187 131,-48 190,-13 234,-124 44,-112 10,-236 -17,-334 l -160,21 -342,66 c -113,59 -76,66 -184,93 -71,18 -44,-81 -90,195 l -38,-183 c -41,32 -16,12 -53,51 -18,19 -11,42 -60,62 l 30,-140 -23,3 -110,11 c -135,73 -349,78 -511,103 -260,-5 -69,160 -163,243 -130,-102 -43,-106 -147,-164 -62,91 -41,110 -39,243 z"
     class="fil13" /><path
     style="fill:#886f67"
     inkscape:connector-curvature="0"
     id="path908"
     d="m 1427,7827 c -28,46 7,9 -24,35 -77,242 -139,216 -161,560 -27,418 54,825 296,1165 320,451 180,172 331,285 l 179,6 c -16,90 13,11 -39,95 162,-25 376,-30 511,-103 l -172,-150 c -60,164 47,0 1,71 -89,-101 -141,-114 -213,-272 -12,-27 -26,-62 -37,-82 l -48,-71 c -49,-65 -45,-37 -86,-148 l -49,1 c -24,1 -6,12 -42,-1 -24,-62 -35,-108 -56,-177 -72,-232 4,-29 -75,-120 -78,-89 -70,-268 -26,-398 l 128,-41 -128,41 c -102,34 -323,233 -408,145 -112,-115 125,-345 161,-391 l -24,-225 c -10,-62 35,-196 43,-218 -42,-42 -55,25 -62,-7 z"
     class="fil4" /><path
     style="fill:#493c33"
     inkscape:connector-curvature="0"
     id="path910"
     d="m 4310,3081 -54,32 -103,41 -40,20 -38,21 -37,23 -33,53 -35,25 -34,25 -29,31 -24,35 -24,40 c -112,344 -51,284 -430,389 -219,62 -472,108 -575,267 l 715,-155 c 222,-31 290,10 448,-6 287,-30 174,72 420,84 -21,-69 -15,-56 -57,-121 -3,-6 -10,-12 -13,-17 -44,-73 -106,-79 233,-178 288,-84 65,-60 335,-366 -125,-126 -179,-70 -115,-172 -216,-4 -144,-24 -270,-83 -112,-52 -70,0 -240,12 z"
     class="fil1" /><path
     style="fill:#493c33"
     inkscape:connector-curvature="0"
     id="path912"
     d="m 14170,14552 c -367,220 -400,472 -666,694 -143,120 -434,237 -779,547 -262,236 -1247,726 -1687,993 l 236,-54 1106,-523 c 5,-4 10,-10 15,-14 5,-4 11,-10 16,-13 l 192,-60 c 115,9 83,3 129,-29 l 79,-70 c 100,-73 32,-109 83,-9 l 41,-31 c 5,-5 13,-11 19,-16 235,-195 133,-212 240,-266 2,-1 11,-4 12,-4 2,-1 12,-1 13,-6 1,-5 10,-2 14,-5 l 17,-15 c 57,-62 90,-101 129,-142 51,-66 91,-119 189,-150 l 77,-27 102,-99 c 24,-30 59,-89 80,-123 l -3,132 175,-23 c 83,-172 113,-86 128,-82 l 246,-274 85,-40 -109,-110 c -16,-31 -45,-100 -32,-182 l 11,-77 -40,10 z"
     class="fil1" /><path
     style="fill:#4f4a60"
     inkscape:connector-curvature="0"
     id="path914"
     d="m 2527,12371 h -25 c -143,472 531,414 657,434 170,27 72,17 229,-1 249,-29 211,44 408,-44 82,-36 153,-47 225,-71 31,-97 73,-227 50,-332 -144,-31 -3,95 -179,181 -100,-97 -115,-105 -239,-203 -145,-113 -30,-113 -275,-104 l -413,-20 c -75,-7 -246,-98 -262,-17 -7,18 -5,13 -18,35 -47,84 -57,88 -158,142 z"
     class="fil11" /><path
     style="fill:#493c33"
     inkscape:connector-curvature="0"
     id="path916"
     d="m 6054,3728 74,31 -39,280 c -5,218 107,789 156,1042 61,312 240,693 435,836 53,-58 34,61 46,-112 4,-56 -16,-96 -24,-137 -18,-92 -29,-200 -62,-280 -55,0 -39,10 -26,-50 l 43,-76 c 60,-109 -56,-141 -75,-305 -24,-135 -50,-152 -97,-261 -35,-84 -47,-209 -64,-287 -28,-130 24,-119 -78,-216 -102,-98 -82,2 -92,-182 -45,-24 -5,75 -45,-41 -26,-76 -10,-20 -12,-101 79,-68 24,-28 96,-45 24,-62 30,-84 8,-144 -74,-22 -87,39 -94,20 -3,-6 -12,7 -19,9 -18,-166 -26,-305 -24,-472 2,-143 45,-367 -11,-455 -100,24 -49,-5 -88,71 -99,195 -5,744 -8,875 z"
     class="fil1" /><path
     style="fill:#b37f4d"
     inkscape:connector-curvature="0"
     id="path918"
     d="m 7983,9031 36,61 c 116,-15 130,-22 246,13 126,37 142,11 204,97 l 237,-44 c -86,-185 -33,-306 -75,-470 0,-55 -45,-375 -60,-428 l 24,310 -141,-158 c -2,-2 -116,-62 -128,-67 -182,-86 -154,-26 -218,-229 0,0 -43,156 -189,16 -23,-22 -11,34 -27,-39 -3,-11 -9,-14 -13,-21 -37,35 -36,70 -149,13 -32,-15 -27,-7 -81,-111 22,454 180,703 334,1057 z"
     class="fil13" /><path
     style="fill:#886f67"
     inkscape:connector-curvature="0"
     id="path920"
     d="m 2666,9862 -36,-3 23,-3 13,6 32,-75 c 128,-18 213,-59 306,-93 32,43 23,32 44,84 l 342,-66 c -11,-103 -7,-194 14,-287 23,-101 29,-170 39,-315 -44,-81 -20,-232 -102,-380 -57,-103 -28,-36 -72,-169 -37,-110 -16,-75 -96,-140 16,256 24,162 -72,341 l -130,258 c -126,130 -61,26 -189,159 -68,71 -148,137 -197,234 -19,-16 -16,1 -49,-58 -74,-206 10,214 169,364 -5,2 -14,-4 -15,1 h -98 c 71,70 37,23 74,142 z"
     class="fil4" /><path
     style="fill:#ffffff"
     inkscape:connector-curvature="0"
     id="path922"
     d="m 15950,12126 c 71,314 105,618 239,881 -5,113 -12,40 37,65 20,-106 -6,-47 90,-82 70,-51 24,-156 78,-274 95,-204 293,-508 369,-842 107,110 64,61 153,15 4,-45 29,-34 -62,-81 -67,-20 -28,-7 -91,-29 -35,-43 0,0 -35,-43 l -30,-65 c -202,8 -299,42 -471,121 -24,75 -21,42 -42,49 13,105 19,48 -37,97 -105,90 -47,21 -80,22 -12,0 -73,-117 -118,166 z"
     class="fil2" /><path
     style="fill:#9fbc4e"
     inkscape:connector-curvature="0"
     id="path924"
     d="m 16323,8677 16,-24 c 37,-108 123,-168 258,-104 98,47 72,122 146,217 l 228,-52 c 4,0 60,-64 130,88 47,26 484,-25 548,-60 l -178,16 c -25,-73 -22,-107 -39,-155 -52,-146 -20,-40 -68,-107 -125,-177 -35,-148 -377,-335 -80,-43 -419,-112 -549,33 -79,89 39,15 -88,85 -40,22 -70,26 -120,56 -115,71 -172,164 -218,259 l -77,153 c 19,14 -17,15 78,38 122,29 137,-57 310,-108 z"
     class="fil14" /><path
     style="fill:#702a49"
     inkscape:connector-curvature="0"
     id="path926"
     d="m 2052,8336 638,-128 c 173,-45 193,-7 311,15 92,17 77,-88 172,198 80,65 59,30 96,140 44,133 15,66 72,169 82,148 58,299 102,380 39,-233 130,-120 57,-398 -43,-169 -33,-268 -109,-420 -116,-231 -194,-565 -193,-884 -51,-4 -119,15 -180,25 -180,32 -76,-36 -194,82 -103,102 -209,140 -219,289 80,129 8,7 95,87 83,76 -1,-35 27,32 3,6 6,29 8,35 l 4,45 c 74,30 324,104 359,-68 -40,77 -20,45 -85,82 -24,14 -111,53 -145,59 -102,16 -92,-9 -160,3 -96,16 -10,24 -155,41 -146,17 -216,24 -311,43 -153,31 -139,92 -291,130 55,54 2,41 101,43 z"
     class="fil9" /><path
     style="fill:#c9b439"
     inkscape:connector-curvature="0"
     id="path928"
     d="m 12713,9995 -19,19 -32,31 -27,37 c -7,122 153,241 96,443 -305,-96 -460,497 -226,675 534,407 545,86 829,143 l 32,-82 127,-267 c -168,135 -225,179 -518,94 -125,-37 -176,-68 -237,-151 -157,-217 -35,-227 -31,-232 110,-104 -59,36 334,-78 4,-345 77,-149 18,-358 -31,-110 -73,-217 -172,-285 l -43,-32 c -3,-2 -13,-7 -18,-17 z"
     class="fil15" /><path
     style="fill:#1b53a2"
     inkscape:connector-curvature="0"
     id="path930"
     d="m 7526,2541 c -10,-252 37,-356 191,-534 l 54,-59 c 137,-7 797,18 842,-7 -112,-125 -684,-140 -885,-141 l -207,45 c 57,69 8,10 62,56 -270,58 63,-86 -252,-18 -209,45 -56,41 -219,76 -333,70 -100,-29 -295,206 l -57,53 c 137,161 146,-58 252,394 69,8 107,5 159,17 183,43 106,96 260,3 77,-46 67,-18 95,-91 z"
     class="fil16" /><path
     style="fill:#a54e24"
     inkscape:connector-curvature="0"
     id="path932"
     d="m 14582,14396 c 10,140 45,130 94,176 127,115 68,149 374,241 94,28 52,19 112,70 53,46 13,31 100,40 85,10 37,-6 154,28 0,-46 -12,-36 30,-36 l -10,-10 c 55,-235 224,-528 367,-639 -117,42 -253,-265 -640,-69 -148,76 -82,126 -320,96 -332,-42 -110,25 -261,103 z"
     class="fil10" /><path
     style="fill:#827f3c"
     inkscape:connector-curvature="0"
     id="path934"
     d="m 6319,12928 c 27,140 82,120 167,204 132,10 240,1 372,-6 50,-3 374,-20 260,42 l 43,21 29,26 10,40 -10,-40 -29,-26 c 35,-26 -28,-24 44,-4 10,2 36,16 48,26 28,24 42,43 50,84 10,50 -47,18 64,216 106,191 -42,-28 43,219 21,65 66,136 93,204 l -221,-162 -34,-79 34,79 c 42,72 17,72 52,123 42,60 41,36 93,71 3,275 -132,99 -36,249 l 144,-192 c 234,-256 219,-675 37,-893 -367,-438 -677,-241 -1253,-202 z"
     class="fil8" /><path
     style="fill:#493c33"
     inkscape:connector-curvature="0"
     id="path936"
     d="m 12396,9701 c 106,50 132,84 232,141 124,72 119,58 233,8 48,-25 47,-3 82,-32 -2,-43 -6,-133 4,-167 37,-131 -11,-73 92,-87 l 10,-93 -5,-105 -24,-35 c -79,-111 -353,-489 -613,-339 -256,147 -144,473 -11,709 z"
     class="fil1" /><path
     style="fill:#9fbc4e"
     inkscape:connector-curvature="0"
     id="path938"
     d="m 13379,15529 c -39,41 -72,80 -129,142 l -17,15 17,-15 47,2 c 2,2 8,-1 9,2 z m -103,195 -33,90 c -46,185 -34,144 64,158 l 12,-124 c 139,14 186,82 287,31 1,-4 0,-15 0,-12 0,3 -1,-11 -1,-13 l -18,-121 c 103,91 -68,40 142,66 l -9,-137 140,145 c 108,-97 19,-76 187,-195 211,-148 151,-76 197,-197 39,70 27,114 95,153 153,88 94,-2 82,-110 145,52 125,23 153,-2 -105,-269 -57,-323 -157,-442 -73,-88 4,-26 -44,-131 l -246,274 c -15,-4 -45,-90 -128,82 l -175,23 c -78,48 -119,140 -145,262 l -21,-13 c -1,0 -8,-1 -9,-1 -38,10 -20,21 -73,-76 -3,5 -4,8 -5,14 l -28,52 c -2,3 -8,9 -11,12 l -84,89 c -10,-8 -18,-19 -26,-30 l -32,-50 c -22,91 -3,206 -114,203 z m 369,-372 -77,27 35,75 z"
     class="fil14" /><path
     style="fill:#493c33"
     inkscape:connector-curvature="0"
     id="path940"
     d="m 16316,12990 c -49,107 -44,86 -31,225 123,-38 108,-41 177,-125 79,48 141,113 266,159 145,-100 188,-408 196,-614 3,-94 5,-698 -8,-746 -89,46 -46,95 -153,-15 -76,334 -274,638 -369,842 -54,118 -8,223 -78,274 z"
     class="fil1" /><path
     style="fill:#4f4a60"
     inkscape:connector-curvature="0"
     id="path942"
     d="m 11377,5474 c -27,33 -35,92 -47,158 138,47 171,71 351,47 133,-17 135,45 286,109 l -49,105 c 335,178 338,346 563,502 105,72 53,44 122,140 54,76 60,66 139,129 115,90 156,141 276,204 -42,-173 -172,-312 -251,-494 -93,-210 -319,-387 -526,-595 -42,-43 -84,-81 -126,-115 -209,-122 -442,-203 -660,-208 z"
     class="fil11" /><path
     style="fill:#493c33"
     inkscape:connector-curvature="0"
     id="path944"
     d="m 16452,6144 c -41,103 -22,224 -28,362 -26,489 68,862 -127,951 -3,-7 -161,-273 -203,-343 -88,-145 -138,-214 -186,-411 l -72,-163 c -152,23 -174,17 -168,-161 -47,-49 -24,-34 -86,-46 l -60,107 25,231 130,-22 c 47,160 174,402 255,565 104,207 178,446 441,413 127,-167 119,-439 165,-721 49,-300 98,-494 93,-812 z"
     class="fil1" /><path
     style="fill:#ffffff"
     inkscape:connector-curvature="0"
     id="path946"
     d="m 5428,9764 c -30,42 -26,172 -9,228 l 40,66 c 19,40 3,7 30,58 10,131 95,202 219,253 l 28,-144 148,41 c 4,-11 5,-34 6,-29 1,4 4,-20 5,-26 2,-6 10,-38 14,-46 71,-153 -15,75 178,-188 l 179,-262 c 132,-14 13,-8 66,30 117,-134 259,-186 265,-380 -43,-40 -35,-33 -101,-55 l 21,100 c -69,47 -169,40 -290,120 -223,149 20,65 -272,147 l -82,32 c -99,24 -77,10 -172,-13 -225,-52 -84,-8 -273,68 z"
     class="fil2" /><path
     style="fill:#493c33"
     inkscape:connector-curvature="0"
     id="path948"
     d="m 15695,12209 c -11,263 -139,940 31,1101 113,-8 176,-84 230,-149 82,-99 83,-169 233,-154 -134,-263 -168,-567 -239,-881 -86,-49 -329,31 -136,-253 -97,-38 0,0 -97,-38 z"
     class="fil1" /><path
     style="fill:#1b53a2"
     inkscape:connector-curvature="0"
     id="path950"
     d="m 12115,2046 c -61,-250 245,-261 174,21 -73,14 -118,10 -174,-21 z m -437,-109 162,57 c 157,7 33,26 114,-29 72,83 45,110 200,162 164,54 151,47 331,47 30,55 7,22 74,79 124,104 0,39 116,181 16,20 6,17 42,45 19,14 32,15 71,43 l 27,31 26,33 41,32 -41,-32 -26,-33 -27,-31 128,11 c 2,-159 -42,-338 -97,-484 -68,-181 -122,-238 -279,-312 -351,-165 -598,99 -862,200 z"
     class="fil16" /><path
     style="fill:#9fbc4e"
     inkscape:connector-curvature="0"
     id="path952"
     d="m 12635,10082 27,-37 32,-31 19,-19 113,-60 c 5,10 15,15 18,17 l 43,32 c 30,-105 -6,-42 54,-106 70,-75 162,-12 208,-10 127,4 158,10 311,38 l 17,-65 c -85,-46 -174,-93 -275,-132 -168,57 -238,167 -341,141 -114,50 -109,64 -233,-8 -100,-57 -126,-91 -232,-141 -133,-97 -239,-171 -378,-282 -130,-104 -281,-216 -452,-247 3,9 65,94 95,132 195,247 -37,111 392,406 280,192 92,58 246,312 191,314 50,216 162,373 60,-70 116,-203 174,-313 z"
     class="fil14" /><path
     style="fill:#827f3c"
     inkscape:connector-curvature="0"
     id="path954"
     d="m 7879,8072 c 4,7 10,10 13,21 16,73 4,17 27,39 146,140 189,-16 189,-16 64,203 36,143 218,229 12,5 126,65 128,67 l 141,158 c 20,45 37,-202 36,118 -12,-323 2,-434 61,-739 26,-138 25,-76 37,-116 12,-111 20,-186 14,-206 -49,-87 -62,-63 -183,30 l -73,52 c -1,-205 15,-201 -131,-299 3,18 -4,10 2,39 -28,178 -16,130 1,401 -279,86 45,42 -480,222 z"
     class="fil8" /><path
     style="fill:#4f4a60"
     inkscape:connector-curvature="0"
     id="path956"
     d="m 6582,4957 c 19,164 135,196 75,305 l -43,76 c -13,60 -29,50 26,50 62,-76 -33,-60 157,-34 75,10 73,12 143,34 -24,169 -141,398 -132,546 80,-114 182,-514 203,-671 67,120 -12,73 52,173 173,-72 -9,-32 278,-61 -17,204 -33,469 -147,590 196,-108 172,-478 188,-723 18,-313 -81,-501 8,-814 -54,-18 -77,-35 -142,-42 -35,187 -162,802 -213,882 -3,-134 28,-114 7,-219 -10,125 -88,-25 -208,0 -197,42 -158,4 -252,-92 z"
     class="fil11" /><path
     style="fill:#c7c6c5"
     inkscape:connector-curvature="0"
     id="path958"
     d="m 8706,9158 -237,44 c -41,-2 -84,1 -127,7 -102,19 -153,71 -278,118 -45,58 -11,125 183,178 l 176,67 c 113,-114 551,-111 721,-111 41,-73 100,-150 122,-272 -64,-66 -32,-19 -100,-69 -77,-55 -12,-25 -99,-83 -347,-27 -136,92 -361,121 z"
     class="fil17" /><path
     style="fill:#133b50"
     inkscape:connector-curvature="0"
     id="path960"
     d="m 10355,5044 -57,612 c 100,-33 80,-44 208,-93 321,-123 245,-41 451,-103 146,-45 21,2 114,-70 5,-4 11,-10 16,-14 5,-3 12,-9 17,-12 6,-4 14,-9 19,-12 l 39,-23 c -87,-201 -199,-253 -312,-393 -287,-16 -243,128 -356,103 l -101,-79 c -53,47 -20,-8 -38,84 z"
     class="fil3" /><path
     style="fill:#886f67"
     inkscape:connector-curvature="0"
     id="path962"
     d="m 6290,3824 c -72,17 -17,-23 -96,45 2,81 -14,25 12,101 40,116 0,17 45,41 185,-13 220,80 382,120 224,57 198,11 300,196 134,-23 209,-150 315,59 65,7 88,24 142,42 l 169,72 c 50,-182 0,-124 -110,-232 88,-424 151,-152 171,-531 16,-298 37,-395 -2,-690 -45,70 -75,508 -88,623 -29,248 -53,90 -148,237 -41,64 -48,157 -112,248 -206,-7 -166,0 -180,-167 -151,39 -93,79 -215,58 -25,-4 -149,-50 -195,-65 -141,-47 -297,-76 -390,-157 z"
     class="fil4" /><path
     style="fill:#ec9353"
     inkscape:connector-curvature="0"
     id="path964"
     d="m 3813,6485 c 96,335 288,738 545,870 l -29,-811 c 118,155 46,249 183,422 237,303 62,249 188,455 l -52,-183 198,100 -20,-240 -27,31 c -6,34 -1,38 -17,75 -31,72 -18,44 -54,84 l 45,-944 -243,-35 c -84,5 -170,12 -254,18 l 68,990 c -327,-135 -373,-655 -531,-832 z"
     class="fil5" /><path
     style="fill:#1b53a2"
     inkscape:connector-curvature="0"
     id="path966"
     d="m 13049,9471 -10,93 c 73,110 27,112 163,145 101,39 190,86 275,132 l -17,65 c 85,71 7,37 115,95 l 130,-46 c 18,-264 104,-415 222,-559 -75,-48 -142,-46 -250,-54 l -123,-34 c -188,66 -73,1 -215,113 -160,-22 -27,-69 -171,-47 -68,10 -80,42 -119,97 z"
     class="fil16" /><path
     style="fill:#9fbc4e"
     inkscape:connector-curvature="0"
     id="path968"
     d="m 13815,9208 237,15 14,16 -14,-16 c -112,-563 -838,-567 -935,-52 -43,226 1,165 -73,195 l -24,-35 24,35 5,105 c 39,-55 51,-87 119,-97 144,-22 11,25 171,47 142,-112 27,-47 215,-113 -54,-51 68,-32 -66,-46 l 41,-30 23,-38 -4,-22 4,22 -23,38 -105,-26 6,34 c -29,-43 -54,-86 -112,-150 l 139,-74 c 111,77 227,191 358,192 z"
     class="fil14" /><path
     style="fill:#da5c5b"
     inkscape:connector-curvature="0"
     id="path970"
     d="m 11643,2178 296,-61 c -7,-2 -79,-58 -99,-123 l -162,-57 c -281,-26 -1179,38 -1367,172 214,11 654,-65 1183,-44 -292,91 -902,73 -1197,254 178,30 471,-54 653,-85 230,-40 517,-18 693,-56 z"
     class="fil18" /><path
     style="fill:#4f4a60"
     inkscape:connector-curvature="0"
     id="path972"
     d="m 13101,7331 c 0,0 -82,19 19,128 l 385,299 c 198,141 355,234 696,202 -34,-59 -4,-16 -43,-60 l -588,-476 c -119,-96 -111,-113 -244,-163 l -33,90 z"
     class="fil11" /><path
     style="fill:#886f67"
     inkscape:connector-curvature="0"
     id="path974"
     d="m 2472,10336 c 43,30 182,112 220,158 90,112 18,136 158,254 310,30 424,-317 483,-599 -220,33 -704,89 -861,187 z"
     class="fil4" /><path
     style="fill:#b37f4d"
     inkscape:connector-curvature="0"
     id="path976"
     d="m 9623,11134 c 86,-9 114,102 153,143 l 54,-47 c 54,-109 -275,-1022 -334,-1234 l -101,-343 c -47,-82 10,-4 -43,-54 15,364 91,827 153,1187 38,222 59,205 118,348 z"
     class="fil13" /><path
     style="fill:#e77424"
     inkscape:connector-curvature="0"
     id="path978"
     d="m 15908,6703 c 48,197 98,266 186,411 42,70 200,336 203,343 195,-89 101,-462 127,-951 l -33,112 c -81,-42 -40,-35 -113,17 -52,37 -34,25 -44,32 l -168,47 c -6,2 -25,9 -31,10 -115,19 6,-10 -127,-21 z"
     class="fil7" /><path
     style="fill:#b37f4d"
     inkscape:connector-curvature="0"
     id="path980"
     d="m 5910,16587 -286,56 c -28,160 27,132 -4,214 -120,49 -88,8 -177,-60 -1,-131 21,-156 83,-215 -145,25 -282,-8 -410,2 -111,10 -140,16 -122,270 h 506 c -91,46 -105,-9 -138,82 151,66 146,-87 752,-47 l -15,-199 c -4,25 -3,21 -21,57 l -50,86 c -22,-102 -93,-187 -64,-282 -23,46 -4,12 -54,36 z"
     class="fil13" /><path
     style="fill:#979489"
     inkscape:connector-curvature="0"
     id="path982"
     d="m 10056,14804 c 65,40 70,42 78,130 -26,23 -285,123 -88,265 55,40 122,30 190,32 -130,87 -91,-24 -166,145 37,40 26,36 84,61 44,18 73,7 80,6 -110,30 -118,9 -189,81 92,111 123,98 286,56 11,-177 -102,-657 -151,-870 -10,-47 -17,-104 -30,-147 l -54,-119 c -98,466 -356,456 -88,559 z"
     class="fil19" /><path
     style="fill:#c2b59b"
     inkscape:connector-curvature="0"
     id="path984"
     d="m 7118,13168 c 114,-62 -210,-45 -260,-42 -132,7 -240,16 -372,6 v 41 c 214,103 187,47 434,255 33,29 53,60 84,96 166,195 46,-101 244,169 l 34,79 221,162 c -27,-68 -72,-139 -93,-204 -85,-247 63,-28 -43,-219 -111,-198 -54,-166 -64,-216 -8,-41 -22,-60 -50,-84 -12,-10 -38,-24 -48,-26 -72,-20 -9,-22 -44,4 l 29,26 10,40 c -16,183 -100,188 -229,127 -26,-176 -18,-200 147,-214 z"
     class="fil6" /><path
     style="fill:#c2b59b"
     inkscape:connector-curvature="0"
     id="path986"
     d="m 6434,11390 -78,-9 c -32,-25 -25,-13 -53,-46 -34,-40 -12,-18 -28,-58 l -154,1 c -23,37 -47,56 -42,110 8,84 33,81 44,98 162,160 266,481 469,560 239,-210 110,-246 -195,-598 z"
     class="fil6" /><path
     style="fill:#b37f4d"
     inkscape:connector-curvature="0"
     id="path988"
     d="m 3181,14934 c 163,73 222,248 416,275 113,-239 228,-286 -48,-502 -79,-63 -10,-15 -73,-49 -372,-62 -392,284 -392,285 l 31,17 20,-19 c -15,-40 9,-33 -27,-66 116,37 45,6 73,59 z"
     class="fil13" /><path
     style="fill:#c7c6c5"
     inkscape:connector-curvature="0"
     id="path990"
     d="m 1470,8277 c 67,-68 61,-114 152,-199 185,-173 111,-23 261,-355 8,-19 13,-35 26,-61 76,-148 104,-82 136,-210 -56,-29 -19,-3 -110,29 -265,92 -182,-75 -323,111 -9,-10 -24,-81 -25,-83 -26,68 -14,35 -28,131 -28,33 -8,11 -28,46 -26,42 2,-4 -44,66 -30,39 33,-28 -60,75 7,32 20,-35 62,7 -8,22 -53,156 -43,218 z"
     class="fil17" /><path
     style="fill:#493c33"
     inkscape:connector-curvature="0"
     id="path992"
     d="m 6290,13176 c 74,-30 94,-18 196,-3 v -41 c -85,-84 -140,-64 -167,-204 -180,-66 -1012,-395 -1187,-428 -169,-32 -156,25 -162,31 399,156 1051,380 1320,645 z"
     class="fil1" /><path
     style="fill:#77431e"
     inkscape:connector-curvature="0"
     id="path994"
     d="m 15814,11873 c -193,284 50,204 136,253 45,-283 106,-166 118,-166 33,-1 -25,68 80,-22 56,-49 50,8 37,-97 21,-7 18,25 42,-49 172,-79 269,-113 471,-121 l 30,65 c 35,43 0,0 35,43 80,26 28,10 91,29 26,-20 87,-108 109,-137 140,47 247,36 256,35 6,-1 17,-5 22,-6 5,-1 14,-3 21,-7 -4,-83 88,-119 -278,-116 -104,-13 -66,-28 -130,-17 -58,11 -29,20 -117,52 -102,38 -255,62 -362,87 -380,89 -114,-78 -407,88 -64,36 -100,60 -154,86 z"
     class="fil20" /><path
     style="fill:#a54e24"
     inkscape:connector-curvature="0"
     id="path996"
     d="m 7384,6878 290,52 c -12,-30 -64,-136 -77,-157 -64,-99 -44,-69 -136,-101 -304,-21 -998,-258 -1250,-106 274,170 813,27 1173,312 z"
     class="fil10" /><path
     style="fill:#ffffff"
     inkscape:connector-curvature="0"
     id="path998"
     d="m 3876,14660 c 134,171 186,42 321,65 l 115,23 c 6,2 24,12 30,17 16,12 62,69 70,78 l -1,-195 c 46,48 67,62 119,104 -39,-134 -17,-113 17,-154 46,59 35,84 101,73 26,-60 -63,-122 -85,-146 l 194,14 c -74,-30 -192,-81 -236,-129 -102,-112 16,-95 -201,-183 -158,336 -46,302 -444,433 z"
     class="fil2" /><path
     style="fill:#b37f4d"
     inkscape:connector-curvature="0"
     id="path1000"
     d="m 6256,16921 c 144,-52 329,-10 485,-12 296,-3 205,-14 284,-171 l -234,-143 -105,70 c 4,-44 1,-14 1,-37 l -311,85 -40,-99 -68,-22 -100,228 c 14,17 29,34 50,58 z"
     class="fil13" /><path
     style="fill:#874298"
     inkscape:connector-curvature="0"
     id="path1002"
     d="m 10570,4481 -35,14 -32,29 -31,28 -26,34 -31,36 -32,50 -29,59 c 4,155 -8,38 39,78 216,-46 131,-76 383,-8 119,-88 187,-217 319,-262 l 32,27 35,27 -35,-27 -32,-27 c -110,-154 -334,-221 -525,-58 z"
     class="fil21" /><path
     style="fill:#4f4a60"
     inkscape:connector-curvature="0"
     id="path1004"
     d="m 5263,5006 c -107,-55 -48,-154 -169,97 -10,21 -25,-88 -25,79 3,350 -123,320 79,546 121,-130 158,-470 216,-569 71,-122 -12,98 47,-66 -23,-133 -78,-224 -125,-320 -51,143 -27,55 -23,233 z"
     class="fil11" /><path
     style="fill:#493c33"
     inkscape:connector-curvature="0"
     id="path1006"
     d="m 2915,14614 c 65,-30 133,-49 219,-46 -46,98 7,15 -42,74 l -124,95 c -34,-51 -48,-40 -53,-123 z m -41,204 210,125 c 0,-1 20,-347 392,-285 14,-138 -13,-49 46,-77 l 34,-92 c -102,-19 -190,-5 -293,-9 -147,-5 -110,-29 -250,-57 -112,32 -112,19 -162,100 -54,90 -51,148 -42,249 z"
     class="fil1" /><path
     style="fill:#c2b59b"
     inkscape:connector-curvature="0"
     id="path1008"
     d="m 12552,4625 c 37,35 -72,59 107,36 53,17 2,0 53,17 l 115,48 c 130,45 192,67 305,157 14,-148 77,-141 155,-237 -25,-21 5,-1 -55,-39 -104,-66 -278,-118 -343,-188 -116,4 -172,-48 -235,18 -73,75 -39,136 2,190 z"
     class="fil6" /><path
     style="fill:#c2b59b"
     inkscape:connector-curvature="0"
     id="path1010"
     d="m 16356,6215 -5,118 c -130,-2 -102,13 -171,-44 -76,194 -275,205 -344,251 l 72,163 c 133,11 12,40 127,21 6,-1 25,-8 31,-10 l 168,-47 c 10,-7 -8,5 44,-32 73,-52 32,-59 113,-17 l 33,-112 c 6,-138 -13,-259 28,-362 z"
     class="fil6" /><path
     style="fill:#493c33"
     inkscape:connector-curvature="0"
     id="path1012"
     d="m 13926,16522 -309,54 c 37,-121 110,-182 90,-299 -18,-105 -21,-99 -86,-120 l -107,-15 c -38,99 -16,63 -1,170 -167,39 -142,60 -178,95 75,66 -4,2 77,49 l 74,49 -167,44 127,29 53,-11 c -26,37 -24,7 -67,27 37,62 37,146 193,94 l -118,86 c 106,-4 428,-138 419,-252 z"
     class="fil1" /><path
     style="fill:#e77424"
     inkscape:connector-curvature="0"
     id="path1014"
     d="m 13677,9342 c 108,8 175,6 250,54 472,9 662,268 978,302 -97,-204 -640,-393 -839,-459 l -14,-16 -237,-15 c -53,99 8,10 -61,72 -7,6 -33,24 -38,28 z"
     class="fil7" /><path
     style="fill:#a54e24"
     inkscape:connector-curvature="0"
     id="path1016"
     d="m 12894,16014 c 4,119 -1,138 62,249 41,-8 106,-26 147,-21 141,17 -20,-19 131,61 l 98,-258 c 11,-96 27,-30 -25,-73 -122,31 -67,82 -64,-158 l 33,-90 21,-51 -47,-2 -17,15 c -4,3 -13,0 -14,5 -1,5 -11,5 -13,6 -1,0 -10,3 -12,4 -107,54 -5,71 -240,266 -6,5 -14,11 -19,16 z"
     class="fil10" /><path
     style="fill:#c7c6c5"
     inkscape:connector-curvature="0"
     id="path1018"
     d="m 16492,5957 -48,29 c -149,90 -98,42 -131,149 -59,85 42,79 43,80 l 96,-71 179,-50 49,-7 c 83,-155 0,73 288,-193 92,-85 38,20 81,-94 6,-209 -260,-19 -357,12 l -27,-139 -2,127 c -60,141 -100,75 -171,157 z"
     class="fil17" /><path
     style="fill:#ea2a29"
     inkscape:connector-curvature="0"
     id="path1020"
     d="m 15336,4118 257,-4 28,-57 c -42,-51 -3,-17 -67,-59 l -77,-45 c -4,-3 -12,-9 -18,-14 -177,-23 -697,-339 -875,-172 144,137 556,111 752,351 z"
     class="fil12" /><path
     style="fill:#c7c6c5"
     inkscape:connector-curvature="0"
     id="path1022"
     d="m 8019,9092 -36,-61 c -23,43 26,50 -152,58 -43,2 -152,-11 -206,-13 -3,8 -296,586 45,426 109,-52 45,-6 95,-134 l 190,-8 c -27,-143 -44,-218 64,-268 z"
     class="fil17" /><path
     style="fill:#133b50"
     inkscape:connector-curvature="0"
     id="path1024"
     d="m 10867,6295 28,62 26,38 29,29 36,59 28,60 29,53 27,36 89,81 c 62,31 23,36 121,6 l 36,-5 c 0,-49 14,-40 -31,-38 -103,-28 -131,-56 -162,-194 -35,-158 24,-68 74,-240 l -45,-17 c -35,-15 -26,-7 -66,-28 -46,-24 -73,-48 -94,-83 -56,-96 -36,-167 -10,-274 -205,64 -151,245 -115,455 z"
     class="fil3" /><path
     style="fill:#b37f4d"
     inkscape:connector-curvature="0"
     id="path1026"
     d="m 2518,14663 196,25 c 28,89 25,112 -2,208 126,10 126,19 162,-78 l -65,-46 c -9,-101 -12,-159 42,-249 50,-81 50,-68 162,-100 -65,-86 -129,-87 -193,-150 -158,35 -170,18 -238,131 -47,78 -52,115 3,200 -30,27 24,14 -67,59 z"
     class="fil13" /><path
     style="fill:#493c33"
     inkscape:connector-curvature="0"
     id="path1028"
     d="m 8352,4243 c 366,58 583,88 935,15 7,-97 16,-80 -61,-117 l -571,9 c -130,0 -244,-8 -360,-61 -88,103 -38,125 57,154 z"
     class="fil1" /><path
     style="fill:#b37f4d"
     inkscape:connector-curvature="0"
     id="path1030"
     d="m 8304,3977 -9,112 c 116,53 230,61 360,61 -12,-195 -39,-185 -108,-337 -23,-51 -37,-91 -45,-143 -7,-41 -3,-45 -9,-77 -13,-72 11,-9 -15,-48 -91,50 -124,38 -148,166 -12,64 -3,86 -6,144 -3,44 -3,41 -8,78 z"
     class="fil13" /><path
     style="fill:#e7e2d6"
     inkscape:connector-curvature="0"
     id="path1032"
     d="m 8111,6990 c 172,84 146,36 243,172 74,102 100,159 270,160 -32,-20 -68,-26 -71,-74 l 24,-70 c 2,-4 8,-13 10,-20 -284,-222 -79,-118 -268,-256 -58,-43 -192,-138 -196,-215 -6,-122 -199,-118 -281,-106 162,69 30,66 249,284 78,77 48,65 20,125 z"
     class="fil22" /><path
     style="fill:#493c33"
     inkscape:connector-curvature="0"
     id="path1034"
     d="m 4773,6344 -45,944 c 36,-40 23,-12 54,-84 16,-37 11,-41 17,-75 l 27,-31 c 61,-213 148,-603 157,-790 -147,-4 -126,-36 -210,36 z"
     class="fil1" /><path
     style="fill:#493c33"
     inkscape:connector-curvature="0"
     id="path1036"
     d="m 2491,14203 -93,11 -56,315 c 40,91 -7,32 86,91 49,32 51,28 90,43 91,-45 37,-32 67,-59 -55,-85 -50,-122 -3,-200 68,-113 80,-96 238,-131 l 67,-22 c -85,-50 -98,-78 -184,-143 -186,4 -45,34 -212,95 z"
     class="fil1" /><path
     style="fill:#493c33"
     inkscape:connector-curvature="0"
     id="path1038"
     d="m 5964,16551 c -29,95 42,180 64,282 l 50,-86 c 18,-36 17,-32 21,-57 l 15,199 142,32 -38,-43 c -21,-24 -36,-41 -50,-58 l 100,-228 68,22 c 73,-5 39,5 77,-33 -160,-113 -296,-45 -336,-360 -47,0 -31,9 -23,-46 -51,63 -18,-19 -59,114 0,1 -12,79 -13,84 -7,58 -11,119 -18,178 z"
     class="fil1" /><path
     style="fill:#c2b59b"
     inkscape:connector-curvature="0"
     id="path1040"
     d="m 13383,5022 428,165 c 54,-42 17,23 29,-64 -55,-62 -154,-202 -193,-236 -90,-49 -54,-80 -102,-150 -53,30 -47,5 -157,-20 l -91,229 64,52 c 5,-7 14,17 22,24 z"
     class="fil6" /><path
     style="fill:#b37f4d"
     inkscape:connector-curvature="0"
     id="path1042"
     d="m 11751,7420 c 41,112 139,133 86,256 -67,-151 -67,-89 -169,-198 l -146,66 c -51,45 -108,90 -149,142 63,112 51,117 169,183 l 401,-335 c 2,-3 7,-10 11,-16 -73,-65 -78,-89 -154,-144 z"
     class="fil13" /><path
     style="fill:#c7c6c5"
     inkscape:connector-curvature="0"
     id="path1044"
     d="m 15668,6379 c -6,178 16,184 168,161 69,-46 268,-57 344,-251 l -15,-50 c -55,-68 -47,-23 5,-86 l 3,-27 c -68,60 -47,42 -123,86 -225,126 -42,-20 -382,167 z"
     class="fil17" /><path
     style="fill:#ffffff"
     inkscape:connector-curvature="0"
     id="path1046"
     d="m 6333,11275 22,38 1,68 78,9 20,29 44,-1 15,31 49,-10 c 26,10 68,28 107,48 -82,-143 23,-64 100,-88 1,9 6,13 7,27 19,23 16,30 13,-66 l 112,54 c -12,-98 -108,-256 -173,-327 -47,81 -120,136 -156,156 -118,67 -120,56 -229,-7 z"
     class="fil2" /><path
     style="fill:#493c33"
     inkscape:connector-curvature="0"
     id="path1048"
     d="m 6123,11486 c -11,-17 -36,-14 -44,-98 -5,-54 19,-73 42,-110 l 154,-1 c 16,40 -6,18 28,58 28,33 21,21 53,46 l -1,-68 c -44,0 -32,9 -22,-38 l -58,2 c -50,-67 -58,-63 -146,-102 -8,-3 -23,1 -29,-12 -12,-27 -86,39 -127,68 -89,-176 39,-40 -60,-204 -276,106 -32,231 8,305 27,52 23,107 63,146 8,8 43,29 56,31 140,24 53,-4 83,-23 z"
     class="fil1" /><path
     style="fill:#b37f4d"
     inkscape:connector-curvature="0"
     id="path1050"
     d="m 2342,14529 56,-315 93,-11 c -70,-75 -97,-94 -201,-118 -123,103 -195,219 -125,423 z"
     class="fil13" /><path
     style="fill:#493c33"
     inkscape:connector-curvature="0"
     id="path1052"
     d="m 12552,4625 104,2 c -41,-54 -75,-115 -2,-190 63,-66 119,-14 235,-18 l 121,8 c -33,-83 -41,-58 -54,-137 -129,1 -327,-27 -431,46 -178,126 -9,212 27,289 z"
     class="fil1" /><path
     style="fill:#493c33"
     inkscape:connector-curvature="0"
     id="path1054"
     d="m 8019,9092 c -108,50 -91,125 -64,268 271,-66 273,-169 514,-158 -62,-86 -78,-60 -204,-97 -116,-35 -130,-28 -246,-13 z"
     class="fil1" /><path
     style="fill:#e7e2d6"
     inkscape:connector-curvature="0"
     id="path1056"
     d="m 8596,4343 c -53,76 -32,176 -18,270 11,79 21,161 43,237 l 159,7 -78,-465 c -53,-113 19,-71 -106,-49 z"
     class="fil22" /><path
     style="fill:#493c33"
     inkscape:connector-curvature="0"
     id="path1058"
     d="m 13287,4646 c -78,96 -141,89 -155,237 50,94 45,55 110,123 l 141,16 c -8,-7 -17,-31 -22,-24 l -64,-52 91,-229 c 110,25 104,50 157,20 -55,-87 -22,-31 -83,-91 -20,-20 -51,-58 -65,-74 z"
     class="fil1" /><path
     style="fill:#b37f4d"
     inkscape:connector-curvature="0"
     id="path1060"
     d="m 6089,4039 39,-280 -74,-31 -62,-31 -261,-27 c 24,253 96,192 301,248 z"
     class="fil13" /><path
     style="fill:#493c33"
     inkscape:connector-curvature="0"
     id="path1062"
     d="m 1649,9978 -20,22 -23,36 -29,31 -34,21 117,207 c -2,-133 -23,-152 39,-243 104,58 17,62 147,164 94,-83 -97,-248 163,-243 52,-84 23,-5 39,-95 l -179,-6 -36,89 z"
     class="fil1" /><path
     style="fill:#493c33"
     inkscape:connector-curvature="0"
     id="path1064"
     d="m 9590,4156 c 0,64 18,56 -41,40 l 87,22 c -18,-48 -17,-32 47,-18 5,1 18,5 22,7 6,1 16,8 21,15 l -51,91 c 151,-76 267,2 291,-222 -55,-55 -3,-40 -192,-97 l -100,89 c -97,70 -27,-47 -84,73 z"
     class="fil1" /><path
     style="fill:#493c33"
     inkscape:connector-curvature="0"
     id="path1066"
     d="m 5526,16582 c -62,59 -84,84 -83,215 89,68 57,109 177,60 31,-82 -24,-54 4,-214 l 286,-56 c -133,-53 -250,-80 -384,-5 z"
     class="fil1" /><path
     style="fill:#c2b59b"
     inkscape:connector-curvature="0"
     id="path1068"
     d="m 16339,8653 -16,24 16,-24 c 90,-47 37,-19 63,6 l 135,-20 c 21,80 14,131 -18,194 108,-14 204,19 224,-67 -74,-95 -48,-170 -146,-217 -135,-64 -221,-4 -258,104 z"
     class="fil6" /><path
     style="fill:#493c33"
     inkscape:connector-curvature="0"
     id="path1070"
     d="m 3327,5869 c -56,56 -33,-19 -53,67 -39,165 24,102 32,114 l 58,118 c 32,-32 31,-13 45,-73 4,-18 8,-94 10,-117 l 78,97 c -10,-152 -2,-126 86,-185 l -26,-31 -24,-35 -108,9 -26,1 -19,5 c 0,57 12,39 -53,30 z"
     class="fil1" /><path
     style="fill:#b37f4d"
     inkscape:connector-curvature="0"
     id="path1072"
     d="m 12893,6326 158,255 c 81,-45 189,-96 40,-298 -48,-65 -11,-16 -46,-51 -110,43 -56,38 -152,94 z"
     class="fil13" /><path
     style="fill:#c2b59b"
     inkscape:connector-curvature="0"
     id="path1074"
     d="m 13424,9206 -16,-111 c 9,-2 -14,-89 94,-15 47,31 24,27 46,92 l 4,22 -23,38 -41,30 c 134,14 12,-5 66,46 l 123,34 39,-34 c 5,-4 31,-22 38,-28 69,-62 8,27 61,-72 -131,-1 -247,-115 -358,-192 l -139,74 c 58,64 83,107 112,150 z"
     class="fil6" /><path
     style="fill:#493c33"
     inkscape:connector-curvature="0"
     id="path1076"
     d="m 2666,9862 -13,-6 -30,140 c 49,-20 42,-43 60,-62 37,-39 12,-19 53,-51 l 38,183 c 46,-276 19,-177 90,-195 108,-27 71,-34 184,-93 -21,-52 -12,-41 -44,-84 -93,34 -178,75 -306,93 z"
     class="fil1" /><path
     style="fill:#493c33"
     inkscape:connector-curvature="0"
     id="path1078"
     d="m 7200,13255 -10,-40 -29,-26 -43,-21 c -165,14 -173,38 -147,214 129,61 213,56 229,-127 z"
     class="fil1" /><path
     style="fill:#e7e2d6"
     inkscape:connector-curvature="0"
     id="path1080"
     d="m 16728,9197 c -166,-65 53,-37 -295,-24 -104,3 -245,40 -303,144 l 651,-102 -22,-54 c -4,4 -12,14 -15,17 -4,4 -11,13 -16,19 z"
     class="fil22" /><path
     style="fill:#6f8cb8"
     inkscape:connector-curvature="0"
     id="path1082"
     d="m 6362,2172 -53,-4 c 89,92 35,39 53,4 z m -278,283 53,53 c 41,24 9,11 76,26 205,-372 81,-320 55,-347 -97,77 -120,137 -184,268 z"
     class="fil23" /><path
     style="fill:#493c33"
     inkscape:connector-curvature="0"
     id="path1084"
     d="m 5701,8599 c 39,251 216,145 290,30 -53,-70 -56,-90 -165,-118 -70,33 -82,32 -125,88 z"
     class="fil1" /><path
     style="fill:#493c33"
     inkscape:connector-curvature="0"
     id="path1086"
     d="m 3933,5889 16,197 67,-147 104,107 c 47,-148 -13,-59 92,-103 l -57,-150 c -222,3 -11,28 -201,26 z"
     class="fil1" /><path
     style="fill:#493c33"
     inkscape:connector-curvature="0"
     id="path1088"
     d="m 12115,2046 c 56,31 101,35 174,21 71,-282 -235,-271 -174,-21 z"
     class="fil1" /><path
     style="fill:#493c33"
     inkscape:connector-curvature="0"
     id="path1090"
     d="m 16173,6126 -3,27 -5,86 15,50 c 69,57 41,42 171,44 l 5,-118 c -1,-1 -102,5 -43,-80 -34,-24 -35,-19 -86,-41 -82,37 -7,-11 -54,32 z"
     class="fil1" /><path
     style="fill:#493c33"
     inkscape:connector-curvature="0"
     id="path1092"
     d="m 4461,3915 c 73,99 68,72 200,36 31,-76 43,-98 9,-169 -294,106 -177,41 -209,133 z"
     class="fil1" /><path
     style="fill:#c2b59b"
     inkscape:connector-curvature="0"
     id="path1094"
     d="m 15621,4057 -28,57 161,68 c 135,59 -16,-24 144,16 -91,-81 -27,-98 -4,-145 z"
     class="fil6" /><path
     style="fill:#493c33"
     inkscape:connector-curvature="0"
     id="path1096"
     d="m 16402,8659 c -33,149 -80,203 117,174 32,-63 39,-114 18,-194 z"
     class="fil1" /><path
     style="fill:#493c33"
     inkscape:connector-curvature="0"
     id="path1098"
     d="m 9497,1575 c -14,-100 -52,-128 -164,-134 -22,173 35,227 164,134 z"
     class="fil1" /><path
     style="fill:#b37f4d"
     inkscape:connector-curvature="0"
     id="path1100"
     d="m 2915,14614 c 5,83 19,72 53,123 l 124,-95 c 49,-59 -4,24 42,-74 -86,-3 -154,16 -219,46 z"
     class="fil13" /><path
     style="fill:#493c33"
     inkscape:connector-curvature="0"
     id="path1102"
     d="m 7181,1794 c 128,-45 131,-108 30,-186 -103,54 -124,112 -30,186 z"
     class="fil1" /><path
     style="fill:#493c33"
     inkscape:connector-curvature="0"
     id="path1104"
     d="m 13424,9206 105,26 23,-38 -4,-22 c -22,-65 1,-61 -46,-92 -108,-74 -85,13 -94,15 z"
     class="fil1" /><path
     style="fill:none"
     inkscape:connector-curvature="0"
     id="path1106"
     d="m 10126,2594 c 12,781 -155,1371 -514,1514"
     class="fil24" /><path
     style="fill:#ffffff"
     inkscape:connector-curvature="0"
     id="path1108"
     d="m 9439,4222 c 0,13 -4,5 0,0 z m 687,-1628 c -249,-87 -250,104 -468,-160 -41,114 -114,251 -233,281 -134,33 -97,-2 -179,-41 l -42,-18 c -7,-3 -15,-5 -23,-7 -7,-3 -16,-4 -23,-6 -85,-25 26,45 -87,-25 -19,-223 41,-188 68,-328 11,-59 -34,-103 63,-202 -71,-35 -126,0 -80,-166 6,-21 79,-120 98,-152 l -71,-97 c -28,33 -62,81 -99,134 l -217,373 c -106,188 49,350 59,703 65,37 65,18 130,47 103,46 -9,9 94,51 90,38 168,27 273,22 34,108 29,106 110,160 l 159,45 -24,121 c -253,36 -447,-96 -428,263 5,89 -10,97 -16,181 -15,230 112,137 103,265 -5,72 71,34 -99,62 80,26 -15,-14 32,41 77,37 68,20 61,117 l 103,100 c 36,54 28,87 41,165 l 172,-255 c -7,-4 -18,-5 -24,-7 l -94,-31 c -30,-15 -42,-12 -46,-8 0,-7 -2,-20 -8,-43 70,-48 21,-41 118,17 l 41,-40 c 12,-25 19,-40 22,-48 6,-15 3,-8 7,-3 26,-11 51,-24 75,-40 l 80,-71 c 2,1 4,1 6,2 243,-239 356,-755 346,-1402 z"
     class="fil2" /><path
     style="fill:none"
     inkscape:connector-curvature="0"
     id="path1110"
     d="m 8825,12459 c -58,174 -37,131 -114,453"
     class="fil24" /><path
     style="fill:none"
     inkscape:connector-curvature="0"
     id="path1112"
     d="m 9068,12151 c -95,76 -178,173 -217,254"
     class="fil24" /><path
     style="fill:#c2b59b"
     inkscape:connector-curvature="0"
     id="path1114"
     d="m 9068,12151 c -95,76 -178,173 -217,254 40,-52 112,-74 198,-80 -36,-74 -23,-131 19,-174 z"
     class="fil6" /><path
     style="fill:#c2b59b"
     inkscape:connector-curvature="0"
     id="path1116"
     d="m 8998,12669 c -82,-114 -176,56 -180,-147 0,-24 2,-45 7,-63 -55,163 -39,135 -101,395 9,-16 24,-38 53,-67 120,-123 207,-113 221,-118 z"
     class="fil6" /><path
     style="fill:none"
     inkscape:connector-curvature="0"
     id="path1118"
     d="m 15935,8747 c -133,79 -278,200 -437,360"
     class="fil24" /><path
     style="fill:#c7c6c5"
     inkscape:connector-curvature="0"
     id="path1120"
     d="m 15935,8747 c -133,79 -278,200 -437,360 74,-46 744,-138 906,-108 0,-1 1,-1 1,-2 1,-7 4,-19 10,-40 19,-55 -4,-15 18,-45 125,47 104,70 252,6 336,-144 249,2 249,2 7,-7 16,-15 20,-20 4,-5 14,-13 18,-19 l 129,-79 c -70,-152 -126,-88 -130,-88 l -228,52 c -20,86 -116,53 -224,67 -197,29 -150,-25 -117,-174 -26,-25 27,-53 -63,-6 l -16,24 c -173,51 -188,137 -310,108 -95,-23 -59,-24 -78,-38 z"
     class="fil17" /><path
     style="fill:#c2b59b"
     inkscape:connector-curvature="0"
     id="path1122"
     d="m 9486,12701 c -25,-17 -20,-11 -61,-36 -128,-126 -101,-176 -299,-213 l -83,103 c 75,128 187,278 443,146 z m -200,-148 c 94,284 -384,66 -72,-64 43,27 50,0 72,64 z"
     class="fil6" /><path
     style="fill:#c7c6c5"
     inkscape:connector-curvature="0"
     id="path1124"
     d="m 2782,9179 c 128,-133 63,-29 189,-159 l 130,-258 c 96,-179 88,-85 72,-341 -95,-286 -80,-181 -172,-198 -118,-22 -138,-60 -311,-15 l -638,128 c -51,65 -92,120 -207,146 l -128,41 c -44,130 -52,309 26,398 79,91 3,-112 75,120 21,69 32,115 56,177 36,13 18,2 42,1 l 49,-1 c 41,111 37,83 86,148 l 48,71 c 11,20 25,55 37,82 68,147 117,168 196,252 2,-11 8,-28 16,-51 l 172,150 110,-11 23,-3 13,6 c -37,-119 -3,-72 -74,-142 h 98 c 1,-5 10,1 15,-1 -159,-150 -243,-570 -169,-364 33,59 30,42 49,58 49,-97 129,-163 197,-234 z"
     class="fil17" /><path
     style="fill:#ffffff"
     inkscape:connector-curvature="0"
     id="path1126"
     d="m 3315,4773 c 97,-40 57,-38 127,-77 -1,1 -1,1 -1,1 3,-2 26,-14 31,-11 105,-1 103,152 144,251 98,-2 82,-18 141,-25 119,-13 215,76 446,-58 137,-80 137,63 297,-93 -115,-48 -51,-72 -152,-84 -144,-18 -44,15 -158,54 -128,44 -105,13 -179,-32 -169,-104 -169,-25 -412,-236 -103,-90 -97,-156 -98,-315 -59,35 -34,8 -85,71 -11,15 -36,85 -48,80 l -8,-17 c -132,312 -65,99 -45,491 z m 126,-76 c -1,0 -1,0 0,0 z"
     class="fil2" /><path
     style="fill:#702a49"
     inkscape:connector-curvature="0"
     id="path1128"
     d="m 13083,6683 -32,-102 -158,-255 -378,-468 c -409,-474 -899,-535 -1055,-683 -108,-104 -208,-425 -298,-582 l -35,-27 -32,-27 c -132,45 -200,174 -319,262 -252,-68 -167,-38 -383,8 -47,-40 -35,77 -39,-78 l 29,-59 32,-50 31,-36 26,-34 31,-28 32,-29 35,-14 -35,14 -32,29 -31,28 -26,34 -31,36 -32,50 -29,59 c -43,125 -21,33 -50,72 -163,-52 -422,-179 -559,-98 58,87 31,55 150,92 57,19 118,37 181,55 220,63 206,16 279,192 18,-92 -15,-37 38,-84 l 101,79 c 113,25 69,-119 356,-103 113,140 225,192 312,393 l -39,23 c -5,3 -13,8 -19,12 -5,3 -12,9 -17,12 -5,4 -11,10 -16,14 -93,72 32,25 -114,70 -206,62 -130,-20 -451,103 -128,49 -108,60 -208,93 l -5,66 c 243,-32 325,-29 562,-83 71,-16 438,-103 478,-146 l 35,-17 87,-20 c 409,9 869,285 1129,600 55,66 105,122 159,193 67,87 66,117 117,189 36,183 750,850 413,686 19,43 28,69 53,137 133,50 125,67 244,163 l 588,476 c 39,44 9,1 43,60 -341,32 -498,-61 -696,-202 l -385,-299 c -101,-109 -19,-128 -19,-128 -301,-79 -742,-519 -944,-761 -73,-88 -85,-73 -167,-158 -171,-174 -176,-321 -312,-275 37,-113 48,-94 7,-183 h -58 c 105,80 59,95 -56,152 -38,-59 -21,-105 -8,-151 -274,299 -235,1 -310,106 208,132 151,0 291,50 -21,90 1,89 -93,102 -162,23 -34,-69 -201,-75 -83,-3 -41,-10 -88,14 96,46 226,92 365,95 22,-52 39,-108 94,-150 46,42 60,-42 43,145 l -177,54 c 215,49 122,44 253,-61 -8,190 -91,418 -340,237 -43,-31 -101,-104 -164,-89 -36,192 189,232 189,231 3,-5 13,4 19,7 -42,41 -59,61 -128,93 l -36,5 c -98,30 -59,25 -121,-6 l -89,-81 -27,-36 -29,-53 -28,-60 -36,-59 -29,-29 -26,-38 -28,-62 c -12,-20 -18,-31 -32,-54 l -27,-42 c -36,134 -74,203 -129,320 209,75 381,255 539,401 137,127 56,120 267,202 125,48 180,117 274,170 l -8,128 -155,-16 c -2,47 -28,46 -51,76 l -23,64 146,-66 c 102,109 102,47 169,198 53,-123 -45,-144 -86,-256 l 49,-46 c 76,55 81,79 154,144 147,76 587,495 938,704 286,169 874,458 1262,253 -99,-165 -272,-289 -418,-400 142,89 390,249 576,247 172,-1 88,-31 225,-90 -90,-461 -905,-757 -1061,-1038 l -39,-49 c -11,-10 -354,-462 -354,-462 z"
     class="fil9" /><path
     style="fill:#9fbc4e"
     inkscape:connector-curvature="0"
     id="path1130"
     d="m 12860,6438 c -51,-72 -50,-102 -117,-189 -54,-71 -104,-127 -159,-193 -122,-148 -288,-287 -472,-394 0,22 50,84 129,117 207,208 433,385 526,595 79,182 209,321 251,494 -120,-63 -161,-114 -276,-204 -79,-63 -85,-53 -139,-129 -69,-96 -17,-68 -122,-140 -225,-156 -228,-324 -563,-502 l 49,-105 c -151,-64 -153,-126 -286,-109 -180,24 -213,0 -351,-47 -4,-6 -13,-21 -14,-16 l -31,-42 c -81,224 -145,7 -303,266 -26,107 -46,178 10,274 21,35 48,59 94,83 40,21 31,13 66,28 l 45,17 c -50,172 -109,82 -74,240 31,138 59,166 162,194 45,-2 31,-11 31,38 69,-32 86,-52 128,-93 -6,-3 -16,-12 -19,-7 0,1 -225,-39 -189,-231 63,-15 121,58 164,89 249,181 332,-47 340,-237 -131,105 -38,110 -253,61 l 177,-54 c 17,-187 3,-103 -43,-145 -55,42 -72,98 -94,150 -139,-3 -269,-49 -365,-95 47,-24 5,-17 88,-14 167,6 39,98 201,75 94,-13 72,-12 93,-102 -140,-50 -83,82 -291,-50 75,-105 36,193 310,-106 -13,46 -30,92 8,151 115,-57 161,-72 56,-152 h 58 c 41,89 30,70 -7,183 136,-46 141,101 312,275 82,85 94,70 167,158 202,242 643,682 944,761 l 192,20 33,-90 c -25,-68 -34,-94 -53,-137 7,3 12,5 17,8 295,133 -395,-515 -430,-694 z"
     class="fil14" /><path
     style="fill:#f3f0e7"
     inkscape:connector-curvature="0"
     id="path1132"
     d="m 13420,14327 c -24,-64 -40,-74 -38,-148 69,-25 64,-21 154,14 z m -146,-184 c 121,-98 36,36 167,-125 l 16,82 -137,81 c -64,-2 -23,7 -46,-38 z m -173,-208 c 55,-35 79,-14 148,14 l -2,107 c -1,5 -5,17 -6,21 -1,5 -4,15 -7,23 -97,-54 -90,31 -18,-136 -125,43 -70,59 -115,-29 z m 152,1424 c 102,-10 203,-73 284,-142 48,-41 164,-153 209,-223 78,-120 305,-403 438,-450 -55,-113 -163,-195 -289,-270 -55,17 -84,25 -136,53 l 87,-105 c -67,-31 -99,-54 -163,-99 12,86 -57,56 60,71 -8,8 -19,9 -25,24 -30,82 19,14 -129,60 136,67 -32,-8 150,4 -8,9 -19,9 -25,25 -26,75 -55,6 -107,86 -10,-4 -25,-20 -31,-11 0,0 -50,13 -107,-96 84,-42 65,-7 136,-63 -59,-128 92,69 -35,-54 l -43,-33 c 11,-153 -11,-11 62,-80 -81,-39 -172,-106 -260,-159 -83,-83 -113,-102 -234,-170 -658,-372 -1472,-841 -2249,-708 186,360 362,300 445,412 66,87 25,112 123,195 270,231 -3,29 257,346 l 277,328 c 105,88 204,153 364,215 96,37 357,118 421,179 160,155 250,339 368,522 65,99 77,72 152,143 z"
     class="fil25" /><path
     style="fill:#ffffff"
     inkscape:connector-curvature="0"
     id="path1134"
     d="m 13420,14327 c -24,-64 -40,-74 -38,-148 69,-25 64,-21 154,14 z m -204,-363 c -125,43 -70,59 -115,-29 55,-35 79,-14 148,14 l -2,107 c -1,5 -5,17 -6,21 -1,5 -4,15 -7,23 -97,-54 -90,31 -18,-136 z m 58,179 c 121,-98 36,36 167,-125 l 16,82 -137,81 c -64,-2 -23,7 -46,-38 z m -21,1216 c 102,-10 203,-73 284,-142 6,-5 13,-12 21,-19 55,-49 149,-142 188,-204 57,-87 193,-262 314,-368 39,-34 76,-61 109,-76 5,-2 10,-5 15,-6 -55,-113 -163,-195 -289,-270 -5,1 -10,3 -15,4 -46,15 -74,24 -121,49 l 18,-22 69,-83 c -67,-31 -99,-54 -163,-99 1,4 1,8 1,12 5,71 -52,45 59,59 -8,8 -19,9 -25,24 -30,82 19,14 -129,60 136,67 -32,-8 150,4 -8,9 -19,9 -25,25 -26,75 -55,6 -107,86 -10,-4 -25,-20 -31,-11 0,0 -50,13 -107,-96 84,-42 65,-7 136,-63 -7,-15 -11,-26 -13,-33 -6,-6 -14,-13 -22,-21 l -35,-26 -8,-7 c 1,-15 2,-27 2,-37 3,-52 1,-38 11,-28 7,7 21,11 49,-15 -81,-39 -172,-106 -260,-159 -7,-7 -14,-13 -20,-20 -69,-67 -103,-88 -214,-150 -658,-372 -1472,-841 -2249,-708 186,360 362,300 445,412 66,87 25,112 123,195 270,231 -3,29 257,346 l 277,328 c 105,88 204,153 364,215 96,37 357,118 421,179 160,155 250,339 368,522 65,99 77,72 152,143 z"
     class="fil2" /><path
     style="fill:#ffffff"
     inkscape:connector-curvature="0"
     id="path1136"
     d="m 13420,14327 c -24,-64 -40,-74 -38,-148 69,-25 64,-21 154,14 z m -204,-363 c -125,43 -70,59 -115,-29 55,-35 79,-14 148,14 l -2,107 c -1,5 -5,17 -6,21 -1,5 -4,15 -7,23 -97,-54 -90,31 -18,-136 z m 58,179 c 121,-98 36,36 167,-125 l 16,82 -137,81 c -64,-2 -23,7 -46,-38 z m -21,1216 c 102,-10 203,-73 284,-142 l 21,-19 c 0,0 0,0 0,0 55,-50 149,-142 188,-204 57,-87 193,-262 314,-368 39,-34 76,-61 109,-76 5,-2 10,-5 15,-6 -55,-113 -163,-195 -289,-270 -5,1 -10,3 -15,4 -46,15 -74,24 -121,49 l 18,-22 69,-83 c -67,-31 -99,-54 -163,-99 1,4 1,8 1,12 5,71 -52,45 59,59 -8,8 -19,9 -25,24 -30,82 19,14 -129,60 136,67 -32,-8 150,4 -8,9 -19,9 -25,25 -26,75 -55,6 -107,86 -10,-4 -25,-20 -31,-11 0,0 -50,13 -107,-96 84,-42 65,-7 136,-63 -5,-12 -9,-21 -11,-28 -1,-2 -1,-4 -2,-5 -6,-6 -14,-13 -22,-21 l -35,-26 -8,-7 2,-37 c 3,-52 1,-38 11,-28 7,7 21,11 49,-15 -81,-39 -172,-106 -260,-159 l -20,-20 c -69,-67 -103,-88 -214,-150 -658,-372 -1472,-841 -2249,-708 186,360 362,300 445,412 66,87 25,112 123,195 270,231 -3,29 257,346 l 277,328 c 105,88 204,153 364,215 96,37 357,118 421,179 160,155 250,339 368,522 65,99 77,72 152,143 z"
     class="fil2" /><path
     style="fill:#886f67"
     inkscape:connector-curvature="0"
     id="path1138"
     d="m 13531,14150 45,-80 53,39 87,41 c 66,63 33,39 108,72 -28,31 -75,70 -90,107 350,-222 173,294 297,36 47,67 103,110 139,187 l 118,-68 c -70,-110 -660,-639 -998,-605 37,37 -8,-1 42,34 104,74 199,238 199,237 z"
     class="fil4" /><path
     style="fill:#9fbc4e"
     inkscape:connector-curvature="0"
     id="path1140"
     d="m 13536,14193 c -90,-35 -85,-39 -154,-14 -2,74 14,84 38,148 z"
     class="fil14" /><path
     style="fill:#9fbc4e"
     inkscape:connector-curvature="0"
     id="path1142"
     d="m 13605,14222 c -11,-23 -21,-45 0,0 z m 0,1 c -71,56 -52,21 -136,63 57,109 107,96 107,96 6,-9 21,7 31,11 52,-80 81,-11 107,-86 6,-16 17,-16 25,-25 -182,-12 -14,63 -150,-4 148,-46 99,22 129,-60 6,-15 17,-16 25,-24 -111,-14 -54,12 -59,-59 l -55,-26 -53,-39 -41,73 35,26 c 31,27 17,16 35,54 z"
     class="fil14" /><path
     style="fill:#9fbc4e"
     inkscape:connector-curvature="0"
     id="path1144"
     d="m 13320,14181 137,-81 -16,-79 c 0,0 -1,-1 -1,-2 -130,159 -45,26 -166,124 23,45 -18,36 46,38 z"
     class="fil14" /><path
     style="fill:#9fbc4e"
     inkscape:connector-curvature="0"
     id="path1146"
     d="m 13247,14056 2,-107 c -69,-28 -93,-49 -148,-14 45,88 -10,72 115,29 -72,167 -79,82 18,136 z"
     class="fil14" /><path
     style="fill:#133b50"
     inkscape:connector-curvature="0"
     id="path1148"
     d="m 15132,13965 c 91,83 161,103 303,60 l 35,-154 c -66,-25 -60,-37 -118,-58 -33,-12 -47,-11 -67,-17 l -87,-35 c -12,101 -31,143 -66,204 z"
     class="fil3" /><path
     style="fill:#ffffff"
     inkscape:connector-curvature="0"
     id="path1150"
     d="m 15132,13965 c 35,-61 54,-103 66,-204 -173,172 -67,202 -66,204 z"
     class="fil2" /><path
     style="fill:#886f67"
     inkscape:connector-curvature="0"
     id="path1152"
     d="m 3526,11525 c 18,82 24,139 87,167 51,21 71,13 147,-26 5,-3 16,-10 21,-12 5,-3 16,-9 23,-14 l 1,-230 c -183,5 -193,-27 -279,115 z"
     class="fil4" /></svg>
